<?xml version="1.0" encoding="UTF-8" standalone="no"?>
<svg
   width="314.0018379"
   height="125"
   version="1.1"
   viewBox="0 0 314.0018379 125"
   id="svg152"
   sodipodi:docname="EZ_RDI_Logo_online_pos_en.svg"
   inkscape:export-filename="EZ_RDI_Logo_online_pos_en.png"
   inkscape:export-xdpi="96"
   inkscape:export-ydpi="96"
   inkscape:version="1.2.1 (9c6d41e410, 2022-07-14)"
   xmlns:inkscape="http://www.inkscape.org/namespaces/inkscape"
   xmlns:sodipodi="http://sodipodi.sourceforge.net/DTD/sodipodi-0.dtd"
   xmlns="http://www.w3.org/2000/svg"
   xmlns:svg="http://www.w3.org/2000/svg"
   xmlns:rdf="http://www.w3.org/1999/02/22-rdf-syntax-ns#"
   xmlns:dc="http://purl.org/dc/elements/1.1/"
   xmlns:x="adobe:ns:meta/"
   xmlns:xmp="http://ns.adobe.com/xap/1.0/"
   xmlns:xmpGImg="http://ns.adobe.com/xap/1.0/g/img/"
   xmlns:xmpMM="http://ns.adobe.com/xap/1.0/mm/"
   xmlns:stRef="http://ns.adobe.com/xap/1.0/sType/ResourceRef#"
   xmlns:stEvt="http://ns.adobe.com/xap/1.0/sType/ResourceEvent#"
   xmlns:illustrator="http://ns.adobe.com/illustrator/1.0/"
   xmlns:xmpTPg="http://ns.adobe.com/xap/1.0/t/pg/"
   xmlns:stDim="http://ns.adobe.com/xap/1.0/sType/Dimensions#"
   xmlns:xmpG="http://ns.adobe.com/xap/1.0/g/"
   xmlns:pdf="http://ns.adobe.com/pdf/1.3/"
   xmlns:pdfx="http://ns.adobe.com/pdfx/1.3/"
   xmlns:xmpRights="http://ns.adobe.com/xap/1.0/rights/">
  <sodipodi:namedview
     id="namedview154"
     pagecolor="#ffffff"
     bordercolor="#000000"
     borderopacity="0.25"
     inkscape:showpageshadow="2"
     inkscape:pageopacity="0.0"
     inkscape:pagecheckerboard="0"
     inkscape:deskcolor="#d1d1d1"
     showgrid="false"
     inkscape:zoom="1.888"
     inkscape:cx="156.77966"
     inkscape:cy="62.5"
     inkscape:window-width="1920"
     inkscape:window-height="1137"
     inkscape:window-x="-8"
     inkscape:window-y="-8"
     inkscape:window-maximized="1"
     inkscape:current-layer="svg152" />
  <title
     id="title2">xxx_Logo_online_pos_en</title>
  <defs
     id="defs6">
    <style
       id="style4">
      .cls-1 {
        fill: none;
      }

      .cls-2 {
        fill: #1d1d1b;
      }

      .cls-3 {
        fill: #fff;
      }

      .cls-4 {
        fill: #154273;
      }
    </style>
  </defs>
  <!-- Generator: Adobe Illustrator 28.6.0, SVG Export Plug-In . SVG Version: 1.2.0 Build 709)  -->
  <g
     id="g148">
    <g
       id="Laag_1">
      <g
         id="g12">
        <rect
           class="cls-1"
           width="314"
           height="125"
           id="rect8" />
        <rect
           class="cls-4"
           width="50"
           height="100"
           id="rect10" />
      </g>
      <path
         class="cls-3"
         d="M25.9037118,77.3628986h-.8702792v-2.4129303h.8702792v2.4129303ZM29.8273709,66.7244893h-.8701433v-2.4142886h.8701433v2.4142886ZM13.7119251,62.5618993c-.065743,0-.5160279.0013583-.5160279.094132,0,.0929095.2095896.0450964.5160279.0968486.6964135.1193969.9709311.4695733,1.4597925.4695733.4436362,0,.8966307-.301005.72032-.9430857-.029204-.1074436-.0915511-.0823146-.1062211-.0092366-.0676446.286471-.4198584.4509642-.7912176.4509642-.4596644,0-.5584147-.1591958-1.2826738-.1591958ZM8.9198884,64.9734713c.0763448.1060853.8974457,1.1712845-.3633521,1.5785106-.0558272.0186091-.0749796.0729421.0092366.1088019.9311322.3886171,1.3822321-.3264057,1.3822321-.3264057.4682148,1.071855-.2500677,1.6661227-.2500677,1.6661227.1014669.1936973.5464544.516028,1.2223572.6672097.2553652-.1366476.6154573-.399212.7654234-.802499,0,0,.1824162.468215.0165646.9152401,1.9021991.1725074,2.5747061-1.3477311,4.039796-1.0744359.0425156.0080141.0623471-.0186091.0623471-.0637055,0-.9377883-.5744359-2.6515882-2.3883438-2.9991838-1.8086105-.3488181-1.3217866-1.0916866-1.3217866-1.0916866.7626998-.0345015,1.2030689.2972017,1.2030689.2972017.1392354-.2281988-.0570497-.4748708-.0570497-.4748708.0729421-.087612.1134272-.3979895.1134272-.3979895-.8588762-.0013583-1.0843583-.1856832-1.0843583-.1856832-.1320292-.5093723.2220862-1.2296925,1.4975539-.4589784.3183915-.2838901.294492-.7163811.294492-.7163811.0961624-.0450964.1557929-.1962781.1557929-.2612061,0-.2123064-1.0199666-.7840258-1.2819876-.8516704-.0636985-.3090192-.4589712-.7548218-1.658108-.5942676-.5671009.0703613-.9763644-.0782396-.785248-.4085845.0324709-.0556914-.0690029-.0662863-.1221135-.0119533-.1313501.1313501-.3124149.501494.1837814.7508826.5498502.2784568.5836725.8303447.5876116.9099426.0092366.1166802-.1313501.1272751-.1624557.0105949-.2534635-.9311325-1.5255354-1.1314856-2.2789986-.6367832.0444172.4987773.5804194.8277639.8742183.8277639.1691115,0,.4032869-.1684324.4032869-.4005703,0-.1127411.057593-.098207.090872-.0105949.1246943.3315674-.3655185,1.0160278-1.0944029.5995651-.7408239.7415102-.4449874,1.6553919-.3708229,1.9923926.1327084.6048626-.1631349,1.1911161-.7082241.9179567-.0279884-.0133116-.055834-.0239065-.055834.0410214,0,.3807388.4961963.8105131,1.0810913.4842432ZM13.0028791,61.2353581c-.3462372.3860362-.9099423.2972017-1.0452315-.3395815.7109476-.0370823,1.0167067.0345015,1.0452315.3395815ZM35.07173,62.7210951c-.371502,0-.7230367-.1644933-.7906813-.4509642-.0152132-.0730779-.0775604-.098207-.1060852.0092366-.1764465.6420807.2765551.9430857.72032.9430857.4888614,0,.763379-.3501764,1.4591133-.4695733.3064382-.0517522.5160355-.0039391.5160355-.0968486,0-.0927737-.4504283-.094132-.5160355-.094132-.7242592,0-.8231453.1591958-1.2826668.1591958ZM42.2273889,64.4892281c0-.064928-.0278457-.054333-.0550122-.0410214-.5452319.2731594-.8409393-.3130941-.7083668-.9179567.0743004-.3370007.3701437-1.2508824-.3713662-1.9923926-.7288775.4164628-1.2190972-.2679977-1.0944029-.5995651.0338223-.087612.090872-.1021461.090872.0105949,0,.2321379.234183.4005703.4032869.4005703.2938058,0,.8296652-.3289866.8747616-.8277639-.7534632-.4947023-2.025535-.2943492-2.2788628.6367832-.0317848.1166802-.1725073.1060853-.1631349-.0105949.0046183-.0795979.0377614-.6314858.5876116-.9099426.4960605-.2493887.3156749-.6195325.1843324-.7508826-.0536615-.054333-.1551284-.0437381-.1226645.0119533.1916597.3303449-.2174679.4789457-.7845688.4085845-1.1991298-.1605541-1.5945383.2852485-1.658108.5942676-.2626926.0676446-1.2821235.639364-1.2821235.8516704,0,.064928.0597663.2161097.1559358.2612061,0,0-.0239065.432491.294485.7163811,1.2746527-.7707142,1.628904-.0503939,1.4975539.4589784,0,0-.225482.1843248-1.0850304.1856832,0,0,.0411573.3103775.1140993.3979895,0,0-.1964139.246672-.0570497.4748708,0,0,.4403767-.3317032,1.2030689-.2972017,0,0,.4868239.7428685-1.3224657,1.0916866-1.8133646.3475956-2.3876646,2.0613955-2.3876646,2.9991838,0,.0450964.0191524.0717196.061668.0637055,1.4657691-.2732952,2.1375969,1.2469433,4.0404751,1.0744359-.1658439-.4470251.0165716-.9152401.0165716-.9152401.1498233.403287.5093721.6658514.7654164.802499.6750878-.1511817,1.1202111-.4735124,1.221678-.6672097,0,0-.7176034-.5942676-.2493886-1.6661227,0,0,.4509641.7150228,1.3822321.3264057.083537-.0358598.0642488-.0901928.0092443-.1088019-1.2614846-.4072261-.4403769-1.4724254-.3634956-1.5785106.5850308.3262699,1.0804121-.1035044,1.0804121-.4842432ZM38.1093534,60.8957766c-.1359608.6367832-.6996659.7256177-1.0452315.3395815.0285248-.30508.3342839-.3766638,1.0452315-.3395815ZM24.6991487,50.212271c0,.1605541.0690029.3011409.1240151.3793805.1121977.1591958.094947.246672.0418364.2997825-.0524241.0531105-.1405867.0703613-.3004616-.0411573-.0782396-.0556914-.2181471-.1246943-.3787012-.1246943-.2745176,0-.410486.1803857-.410486.334284s.1359684.334284.410486.334284c.1605541,0,.3004616-.069003.3787012-.1246943.1598749-.1113827.2480375-.094132.3004616-.0410214.0531105.0516164-.0245857.6035042-.0862537,1.0372177-.4542241.0954903-.6731861.4589784-.6731861.6712847,0,.5464546.5843516.8621295.9278722,1.0452319.3429772-.1831023.9273288-.4987773.9273288-1.0452319,0-.2123064-.2189621-.5757944-.6726428-.6712847-.0623471-.4337135-.1392284-.9856013-.086797-1.0372177.0522955-.0531105.1405867-.0703613.3004616.0410214.0782469.0556914.2181544.1246943.3787012.1246943.2745176,0,.410486-.1803857.410486-.334284s-.1359684-.334284-.410486-.334284c-.1605468,0-.3004543.069003-.3787012.1246943-.1598749.1115186-.2481661.0942678-.3004616.0411573-.0524314-.0531105-.0703613-.1405867.0417006-.2997825.055148-.0782396.1246943-.2188263.1246943-.3793805,0-.2745177-.1803856-.4111653-.3342839-.4111653-.1544416,0-.3342839.1366476-.3342839.4111653ZM25.0334326,54.2727149c-.3681062,0-.6665303.2970659-.6665303.6658514,0,.3674272.2984241.6658514.6665303.6658514.3674271,0,.665987-.2984242.665987-.6658514,0-.3687855-.29856-.6658514-.665987-.6658514ZM25.0334326,60.6836061c2.668302,0,4.1738627.5093723,4.1738627.5093723.0145341-1.3477311.0052975-2.0998362.7785922-1.9870951-.4224392-1.1328439,1.3981245-1.5771523,1.3981245-3.0535168,0-.9724256-.6877202-1.08245-.8906541-1.08245-.604319,0-.5093721.3925562-1.0234983.3925562-.0635696,0-.1299844-.0158924-.1299844.0305623,0,.1697908.1446543.4603367.3807312.4603367.3156749,0,.3223307-.3158108.5565134-.3158108.1014595,0,.2473437.0823146.2473437.4060036,0,.6274108-.4111651,1.3238245-.8966233,1.8624008-.1115259-.1538983-.2633867-.2493887-.4451307-.2493887-.28715,0-.5392552.2997825-.5392552.6697906,0,.1366476.0220049.2362129.0717196.3515348-.1619124.0901928-.3057517.1419451-.4138818.1419451-.2188262,0-.549171-.0888345-.549171-.5690028,0-1.0691384,1.4339843-2.0110016,1.4339843-3.366611,0-.6473782-.4324909-1.2920397-1.3357773-1.2920397-.9690221,0-.7886438.8848136-1.6270023.8848136-.0384406,0-.0690029.0118174-.0690029.0463189,0,.0556914.1453408.5452321.5790542.5452321.4642757,0,.5949466-.802499,1.0054326-.802499.1538983,0,.3834553.0901928.3834553.6340666,0,.4231185-.2095896,1.1062207-.5107304,1.761613-.1088019-.1088019-.2560444-.1883998-.4225751-.1883998-.3594129,0-.6173516.3474598-.6173516.7627,0,.2627002.1033612.516028.2818452.6831021-.2116271.2707144-.4278725.490899-.7209992.490899-.5790542,0-.8349554-.3289866-.8349554-.6871771,0-.3873946.7070011-.5279813.7070011-1.1328439,0-.4111653-.2673185-.6433032-.5247212-.6433032-.2765551,0-.4185001.1831023-.4463458.1831023-.0285248,0-.1704699-.1831023-.4470249-.1831023-.2572669,0-.5245853.2321379-.5245853.6433032,0,.6048626.7070084.7454493.7070084,1.1328439,0,.3581906-.2553652.6871771-.8342835.6871771-.2939416,0-.5100512-.2201846-.7216784-.490899.1783481-.1670741.2818525-.4204019.2818525-.6831021,0-.4152403-.257946-.7627-.6174948-.7627-.1663949,0-.3136374.0795979-.4224392.1883998-.3004544-.6553923-.5100512-1.3384944-.5100512-1.761613,0-.5438737.229557-.6340666.3833195-.6340666.4099426,0,.5406136.802499,1.0055684.802499.4337133,0,.5789183-.4895407.5789183-.5452321,0-.0345015-.0311057-.0463189-.0695463-.0463189-.8383513,0-.6579729-.8848136-1.6263232-.8848136-.9032865,0-1.3357773.6446615-1.3357773,1.2920397,0,1.3556093,1.4339843,2.2974726,1.4339843,3.366611,0,.4801682-.3303376.5690028-.549171.5690028-.1088019,0-.2521052-.0517522-.414561-.1419451.0497147-.1153219.0715838-.2148872.0715838-.3515348,0-.370008-.2519694-.6697906-.5391194-.6697906-.181744,0-.3330614.0954903-.4444441.2493887-.4861447-.5385763-.8966307-1.23499-.8966307-1.8624008,0-.3236891.1458842-.4060036.2466719-.4060036.2347187,0,.2413744.3158108.5570493.3158108.2355336,0,.3800595-.2905459.3800595-.4603367,0-.0464547-.0656071-.0305623-.1293126-.0305623-.5146695,0-.4191793-.3925562-1.0233625-.3925562-.203613,0-.8907899.1100244-.8907899,1.08245,0,1.4763645,1.8206996,1.920673,1.3981245,3.0535168.7734378-.1127411.763379.639364.7780489,1.9870951,0,0,1.505568-.5093723,4.174406-.5093723ZM20.140744,62.6746403c-.7262967.1591958-1.247622.3090192-1.4809823.3807388.0118246-.3209724.1339309-.6181742.4197226-.6844605.036539-.0093724.0457827-.058408.0119533-.0809562-.6472421-.4297743-.9941585.3939145-1.0040742.4205377-.229557-.0172507-.5790542.054333-.5790542.3647105,0,.9271933-2.1210253,1.4419989-2.6124675,1.5175218.8660684.334284,1.2269755,1.4259706,1.2269755,1.4259706.6287689-.6287691,1.3643093-1.1832378,1.5260787-1.1832378.1672099,0,.2307866.2095897.2440911.334284.0039391.0411573.0423869.0544689.0683238.0186091.3289864-.4907632.171149-.6022817.1445258-.7468076-.0211899-.1140994.0119533-.5438737.4921213-.4934798v6.1881258l-.2466719.0490356c-.1134202.0199674-1.018065-.7495243-2.0540528-1.4657696-1.036002-.7162453-1.5925079-.2878293-2.774387.3515348-1.545367.8370005-3.109343.0782396-3.109343.0782396-1.3330538.9524582-1.7867345,3.7061925-1.7867345,3.7061925-.2652879.1140994-.705657.2334962-1.1227988.2334962-1.0175217,0-1.2045631-.6154575-1.2045631-.984243,0-1.5706324,1.9665837-2.2444979,1.9665837-3.7924462,0-.3754413-.1725073-1.9035581-2.0627532-1.9035581-.2420536,0-1.6845953-.0025808-1.6912511-.0025808-.7076876,0-.8846774-.5093723-.9828844-.7044279-.0377614-.0755229-.1101535-.0317848-.0828579.0278457.054333.1299918-.0816286.3276282-.0816286.7203203,0,.6287691.3694646,1.0067912,1.057178,1.0067912.313094,0,.607579-.0888345.7030693-.1458842.0637055-.0370823.0975278.0239065.0676446.058408-.2997757.3501764-.323689,1.0054329-.200353,1.1646287.029204.0384406.065743.0278457.0729421-.0027167.1658583-.6644931.7879715-1.2919039,1.625644-1.2919039,1.0253999,0,1.0201025.871502,1.0201025,1.0823142,0,1.2602549-2.2132556,2.1847315-2.2132556,3.9171405,0,1.7576738,1.8564304,2.1343376,2.9322242,1.855745-.0630332,1.7590322-2.076615,2.3585973-2.1376038,1.0997007-.0046183-.0596305-.0478131-.0743004-.0809562.0052975-.254686.6221133-.1538983,1.1687037.6301272,1.3424336.0529747.0133116.0271665.0423798-.0213257.0756588-.7758755.493344-.3554738,2.4327619-.3170332,3.003123.058408.8224664-.759304.7242594-.8264053.7003529-.0338223-.0131758-.0662863.004075-.0145341.069003.5797333.7109478,1.2959784.0609888,1.2959784.0609888.5411569.1697908.2056505.6314858-.1552566.8728603-.0563705.0384406-.0516164.0756588.0093724.0795979.0809562.0052975.9186356.0756588,1.0677797-.5916868.3708229.4430859.9159189.2813093,1.0307043.2229013.1612264-.0821787.9457952-.3674272,1.0240347.5146697.0046183.0637055.0418364.0225482.0676446-.0105949.5929091-.7454493-.0423798-1.205786-.3952727-1.260119.0285248-.0411573.5040746-.4350718.9311322.1113827.0285248.0370823.0558272.0450964.0611246-.029204.0490356-.9458024-.72032-1.0319203-1.218418-.620755-.0232274-.0968486-.189072-.6287691.5630259-.61016.0179299,0,.0537897-.0266232.0160282-.0637055-.5836725-.6168158-1.0638406-.0556914-1.1753591.0782396-.2599835.3064383-.9072256.1844607-.966992.1764465.2029338-3.2870131,3.0987481-2.1223844,3.4966016-3.7195041.0186091-.0848954.0563775-.0531105.0643846-.0225482.109481.3899754,1.0923654.4444443,1.272751-.3236891.0099158-.0476772.0039391-.0848954-.0305623-.0490356-.8382227.8370005-2.7258877-1.7802221-.1498233-3.9065456,2.1992649-1.8132294,4.1704669-.802499,4.9199909-.2055147.0397989.2625644-.116816.3474598-.2169246.3792446-.0358598.0107308-.0471339.0438739.0099158.0664221.2095896.0795979.5047538.054333.6434388-.1419451.472154.3302091.0676446.7454493-.1234718.860907-.0483493.0304265-.0271665.0623472.0133116.0702255.4337133.0782396.7905455-.3647105.8077962-.6193967l.0729421.0411573v1.8676983c0,2.6596023,3.0681857,3.028252,6.4354747,5.2833448,3.3666098-2.2550928,6.4347956-2.6237425,6.4347956-5.2833448v-1.8676983l.0736212-.0411573c.0172507.2546861.3740829.6976362.807932.6193967.0403423-.0078783.0609888-.039799.0131758-.0702255-.1909731-.1154577-.5954899-.530698-.123336-.860907.1380059.1962781.4337133.221543.643303.1419451.0563705-.0225482.0457756-.0556914.0093724-.0664221-.0995578-.0317848-.2560444-.1166802-.2162454-.3792446.749524-.5969843,2.7205978-1.6077147,4.9199909.2055147,2.5760644,2.1263235.6877202,4.7435461-.1499591,3.9065456-.0351806-.0358598-.0404705.0013583-.0304265.0490356.1803856.7681334,1.16327.7136645,1.2720719.3236891.0078783-.0305623.0464547-.0623472.064928.0225482.3979894,1.5971197,3.2936678.432491,3.4966016,3.7195041-.0596228.0080141-.7070084.1299918-.9669842-.1764465-.1113827-.1339309-.5915585-.6950554-1.175231-.0782396-.0384406.0370823-.0027167.0637055.0158924.0637055.7521049-.0186091.5863891.5133114.5624826.61016-.4974188-.4111653-1.2674536-.3250474-1.2177388.620755.0046183.0743004.0324716.0662863.0609965.029204.4271857-.5464546.9020563-.15254.9312603-.1113827-.352893.054333-.98831.5146697-.3952727,1.260119.025129.0331432.0622113.0743004.0676446.0105949.0775604-.8820969.8621292-.5968484,1.0240416-.5146697.1146427.058408.6591954.2201846,1.0306974-.2229013.148465.6673456.9868235.5969843,1.0677797.5916868.0603097-.0039391.0649357-.0411573.0092444-.0795979-.360779-.2413745-.6964213-.7030695-.1551285-.8728603,0,0,.7162451.649959,1.2959784-.0609888.051073-.064928.0184732-.0821787-.0146699-.069003-.0669654.0239065-.8853566.1221135-.8264053-.7003529.0384484-.5703611.4589782-2.509779-.3170332-3.003123-.0490356-.033279-.0749796-.0623472-.0211899-.0756588.7838897-.1737299.8848133-.7203203.6301272-1.3424336-.0331431-.0795979-.0770171-.064928-.0809484-.0052975-.0609966,1.2588965-2.0745784.6593314-2.1382838-1.0997007,1.0757938.2785927,2.9322173-.0980711,2.9322173-1.855745,0-1.732409-2.2132556-2.6568857-2.2132556-3.9171405,0-.2108122-.0052975-1.0823142,1.0201025-1.0823142.8376794,0,1.4597925.6274108,1.6261873,1.2919039.0066558.0305623.0437381.0411573.0729499.0027167.1233282-.1591958.0995575-.8144523-.200225-1.1646287-.0305623-.0345015.0032678-.0954903.0676446-.058408.0948111.0570497.3899753.1458842.7023901.1458842.6877202,0,1.0571848-.3780221,1.0571848-1.0067912,0-.392692-.1352892-.5903285-.0809562-.7203203.0271665-.0596305-.0457756-.1033686-.0828579-.0278457-.0988861.1950556-.2758759.7044279-.9830202.7044279-.00652,0-1.4491975.0025808-1.6919303.0025808-1.8895667,0-2.0626173,1.5281168-2.0626173,1.9035581,0,1.5479483,1.9664479,2.2218138,1.9664479,3.7924462,0,.3687855-.1863623.984243-1.2044273.984243-.4171418,0-.8575109-.1193969-1.1222486-.2334962,0,0-.4535449-2.7537343-1.7867414-3.7061925,0,0-1.563976.7587609-3.1092072-.0782396-1.1820149-.639364-1.7390642-1.0677801-2.7750591-.3515348s-1.9406397,1.485737-2.0533807,1.4657696l-.2474869-.0490356v-6.1881258c.4803039-.0503939.5141262.3793805.4928005.4934798-.0264873.1445259-.1843173.2560445.1446617.7468076.025129.0358598.0637055.0225482.0676521-.0186091.0131683-.1246943.0768737-.334284.2440836-.334284.1617766,0,.897989.5544687,1.5267579,1.1832378,0,0,.3607713-1.0916866,1.226983-1.4259706-.4921289-.0755229-2.6131542-.5903285-2.6131542-1.5175218,0-.3103775-.3494972-.3819613-.578375-.3647105-.0105949-.0266232-.3575113-.8503121-1.0042101-.4205377-.0343656.0225482-.025129.0715838.0119533.0809562.2859275.0662863.4079052.363488.4198659.6844605-.6181814-.1897581-3.2511596-.9285517-6.3738142-.9285517-1.5154838,0-2.91225.1750882-4.0225452.3754413v2.1449326h-.8701433v-1.972561h0M14.3798137,84.6480084c-.2309153-.0929095-.3834553-.2415104-.3834553-.5452321v-1.3318386c-.381282-.1339309-1.4246118-.5319205-3.5058382-.5319205-1.7296917,0-2.2716636.3899754-2.2967927.5279813l-.4596574,2.5362663s.7003526-.6407224,3.2087724-.4762291c3.021731.192339,6.1522639,1.9751418,6.1522639.0743004v-1.1183098c-2.3685122,0-2.7152928.7534634-2.7152928.864982ZM32.9718945,83.7830264v1.1183098c0,1.9008414,3.1305329.1180385,6.1522639-.0743004,2.5082839-.1644933,3.2087724.4762291,3.2087724.4762291l-.4603365-2.5362663c-.0245857-.1380059-.5664217-.5279813-2.2967927-.5279813-2.0806831,0-3.1245562.3979895-3.5052949.5319205v1.3318386c0,.3037217-.15254.4523226-.3833195.5452321,0-.1115186-.3475879-.864982-2.7152928-.864982ZM25.0334326,82.6317093c4.8656579,0,9.8061596.2546861,10.4521792.9881822.0516164.058408.0729421-.0012225.0729421-.0450964l.0012225-2.5786461c0-.7521051-5.0976599-1.1898936-10.5263438-1.1898936-5.4292272,0-10.5263438.4377885-10.5263438,1.1898936l.0013583,2.5786461c0,.0438739.0211899.1035044.0729421.0450964.6460196-.733496,5.5865213-.9881822,10.4520434-.9881822ZM20.6938542,70.4730616l-.4921213-.1272751-.0411573.0609888-.5710401-.250747s.4212167-.0025808.5107304-.0039391c.0478202,0,.051073-.0305623.0258082-.054333-.2326812-.2281988-.4362942-.4271935-.4362942-.4271935,0,0,.232002.0862537.5637051.2095897.0377614.0133116.0517522-.0145341.0338223-.039799-.1591958-.2348546-.3761203-.5505295-.3761203-.5505295,0,0,.4596645.3077967.553246.3701438.0297473.0211899.0536539.0013583.0410214-.029204-.1226568-.3037217-.2618852-.6473782-.2618852-.6473782l.5046179.4762291c.0232274.0213257.0491786.0093724.0425156-.0225482-.0490284-.2268404-.1392284-.6472423-.1392284-.6472423l.3700151.5411571c.0218618.0317848.0497075.0225482.0503867-.0145341.0020375-.1062211.0119533-.5916868.0119533-.5916868,0,0,.1559358.3581906.2348545.5411571.0158924.0372181.0437453.039799.0635696-.0078783.0245857-.058408.1904372-.45762.1904372-.45762l.021869.6154575-.0823145.0158924-.1033686.7415102c.7348541-.1723716,1.6501011-1.4285515,2.3518048-1.4285515.8357777,0,1.1394993.9789455,2.6841871.4827491.3892961.5770169.5259436,1.0785108.6764461,1.7722079.5956257.5611245,1.4333051.374083,1.4333051-.2201846,0-.7999182-.8721808-.9524582-.8721808-1.786742,0-.3727247.2613418-.9087201.9736477-.9087201.3768069,0,.9292305.1619125,1.2469428.1619125.3773428,0,.4576199-.2732952.5001355-.3860362.0343656-.0848954.1371909-.0570497.1272751.0092366-.0126324.0782396.0437381.1870415.0437381.3662047,0,.5278455-.7679973.5968484-.8634801.5319205-.0398064-.0278457-.0683312.0145341-.0398064.0370823.1154577.0929095.0895137.4072261-.0478131.6075792-.0165716.0225482-.0377614.0184732-.0423798-.0027167-.0823145-.3780221-.5259436-.8450146-.9165981-.8450146-.1439825,0-.4297742.0836729-.4297742.4152403,0,.4748708.9510995.9073618.9510995,1.8916048,0,1.0226836-1.0134467,1.2681332-2.0321908,1.013447.0345015.9683506,1.4803106,1.5440092,1.5148046.8515346.0020375-.0476772.0278457-.0184732.0425156.0013583.2148871.2958434.1166802.5213255-.1566149.6354249.2521126.1140994.2972016.6221133.371502.925835.1107035.4550392.5935883.2029339.6174948.1897581.0258082-.0158924.0350448-.0013583.0244499.0278457-.1829664.4735124-.6685678.2944851-.6685678.2944851-.254686.1790274.0531105.3395815.28389.4085845.0345015.0092366.032464.0345015.0052975.0450964-.1704699.0623472-.5345011.1763107-.7109476-.1287693-.1306709.3158108-.399891.3064383-.5040746.3064383-.1863623,0-.3103774.1909806-.2666393.4456668.0039391.022684-.0119533.029204-.0285248.0160282-.4443083-.2944851-.1889431-.6407224-.0099158-.7269761-.0312415-.0186091-.3369932-.1458842-.4669923.2123064-.0099084.0278457-.0271665.0290682-.0370749.0025808-.1937046-.516028.2294138-.6658514.5344938-.5358596-.0211899-.0729421-.1810648-.3250474-.5823142-.2440912-.0177941.0052975-.0297473-.0027167-.0184732-.0278457.0656071-.1578375.2646092-.3913337.6287689-.1552567.1856831.1154577.5066554-.0529747.5358594-.0676446-.6473706-1.2879647-1.9049157-.2095897-2.1860891-1.2189618-.0052975-.0213257-.0304265-.039799-.0476772.0158924-.0671013.2148872-.6155931.2294213-.7163809-.1936973-.0078783-.0331432.0046183-.0370823.025944-.0158924.0801412.0809562.2526486.1538983.4794889-.1737299.1498233-.2162455.171149-.5054331.171149-.7017112,0-.7840258-.7826672-2.0986137-2.0031227-2.0986137-.7712572,0-1.6003791.3011409-2.2158365.7495243l.5730775.1313501c-.0544689.5795977-.6115182.9165984-1.1236069.7746533l.0889775-.6632706c-.0889775.0278457-.3137732.1074436-.4338564.2785927-.0085575.0131758-.0264873.0092366-.0304265-.0052975-.1048555-.3754413.2055147-.5650636.3023633-.614235.0105949-.0066558.0099158-.0145341-.0099158-.0145341-.2779134-.0105949-.4343925.1936973-.4782664.2639227-.0071991.0105949-.0191524.0080141-.0225482-.0013583-.0225482-.0688671-.0715838-.2625644.058408-.4005703ZM22.3957002,74.9513266c-.2195054.2679977-.4118443.0119533-.6996735.0119533-.2712576,0-.316354.2268404-.3230098.3170333-.0013583.0158924-.0105877.0225482-.021869.0052975-.3071174-.4191794.0358598-.6473782.236077-.6778047-.0291968-.029204-.3308881-.2321379-.523227.0463189-.0146699.0199674-.0331431.0107308-.0331431-.0131758-.0093653-.5199672.403151-.5571853.6750878-.3289866.0491714-.1962781-.0782396-.3289866-.2984241-.3395815-.0264873,0-.0305623-.0172507-.0198316-.029204.0920945-.0994295.1816081-.1445259.2718009-.1445259.2898667,0,.3264128.3660689.5153487.3660689.28389,0,.6851394-.3820971.7237158-.4231185-.0080069-.0213257-.2792717-.7561801-.2256179-1.1965494.0027167-.0186091-.0071991-.0211899-.0198316-.0133116-.1366475.0770171-.4847864.0743004-.4847864-.3541156,0-.0345015.0099158-.0370823.0290682-.0092366.1525472.2108122.4000269-.0266232.5233701-.1658516.1339237-.1486009.8475952-1.1885353,1.8007249-1.1885353.2095969.0013583.4801681.1154577.6977718.2666394-.3289864.4005703-.0027167.7838899.2413744.7348544.0285248-.0052975.0338296.0211899.0066631.0305623-1.2595826.4735124-1.8226085.6631348-1.8226085,1.7177391,0,.5505295.1882639.8556095.5112737.7840258.0245857-.0066558.0312415.0039391.0139908.0225482-.1166729.1392284-.2521052.1856832-.3641671.1856832-.2613418,0-.3083399-.1433034-.4489266-.1433034-.1446617,0-.6135556.275876-.6135556.5067914,0,.0874762.0550122.2055147.2208637.3143166.0106022.0066558.0046183.0158924-.0046183.0172507-.1055419.0198316-.4775873.0517522-.5638409-.2997825ZM25.7125954,64.6975953c-.3939144-.0239065-.6460123.0635697-.6340664.1896223.1916597.2017114.4463458.1791632.6340664-.1896223ZM24.2594587,65.6712433c.2779134-.0703613.5843589-.0372181.6168156-.0266232.0437381.0146699.0425156.0809562-.007335.087612-.5802767.0743004-.606764.3409398-.9769077.3409398-.2440911,0-.5080138-.2454495-.4085843-.6075792.0126324-.0464547.0491714-.0478131.0597663-.0039391.0370823.1564792.2625643.3262699.7162451.2095897ZM16.7297169,78.5288856c.3846778.4921215.752784.029204,1.2567228.029204.2454494,0,.545911.083537.6022887.5770169.0027167.025129.0238994.0331432.0478059,0,.549171-.7508826-.0763308-1.1740012-.43643-1.2283342.0775675-.0703613.6147781-.4005703.9550458.0874762.0186019.0266232.0556913.0186091.0556913-.0184732,0-.9498774-.7116339-1.0161637-1.2269826-.6049984-.0968486-.370008.1824302-.6140992.5411569-.6140992.0431948,0,.058408-.029204.0358598-.054333-.6361038-.6818797-1.1123328.1750882-1.2203197.3117358-.2541356.3382232-1.1627267-.2972017-1.5255283-.6752239,0,0,.8031708-.8410755.8031708-1.6104313,0-.0450964-.0052975-.1100244-.0052975-.1366476,0-.0237707.0105949-.0331432.032464-.0198316.0795979.0450964.1923389.0782396.2958433.0768813.1837814,0,.530562-.0582722.530562-.7109478,0-.0490356-.0225482-.0464547-.0437381-.0172507-.0954903.1380059-.2008963.1684324-.2818455.1684324-.6480642,0-2.0016356-2.1621833-3.5973965-2.1621833-.4165984,0-1.2057856.3011409-1.6044541.7322735.1930181.1140994.2294212.3475956.2095896.5186089-.029204.2746535-.2466719.4099428-.4695662.47229-.0398059.0092366-.0430659.0384406,0,.0556914.8058876.3077967,2.2722.8634878,2.6052684,1.1500946.3939144.3395815.3170262.984243.0888275,1.8716374-.2208637.8528929-.6924744.7362127-.8662042.708367-.0252649-.0039391-.0338223.0119533-.0179299.0317848.2082313.2627002.4610157.3501764.6778044.3501764.4185001,0,.575115-.2599836.7919038-.2599836.3648462,0,1.1282252.5226838,1.1282252.9206734,0,.2227655-.174409.4258352-.3992119.5717194-.0146699.0105949-.0119533.0278457.0099158.0317848.174409.029204.8887524.0901928,1.0267583-.5531103ZM34.3633632,79.0819959c.021869-.0039391.025129-.0211899.0105949-.0317848-.2248029-.1458842-.399891-.3489539-.399891-.5717194,0-.3979895.763379-.9206734,1.1280894-.9206734.2169246,0,.3734037.2599836.7919038.2599836.2169246,0,.4695731-.0874762.6786194-.3501764.0152208-.0198316.00652-.035724-.0179299-.0317848-.1738657.0278457-.6460121.1445259-.8662042-.708367-.2281987-.8873944-.3050799-1.5320559.0888345-1.8716374.3329256-.2866068,1.7986947-.842298,2.6052684-1.1500946.0430666-.0172507.0397989-.0464547,0-.0556914-.2229012-.0623472-.4403691-.1976364-.4695731-.47229-.0199674-.1710132.0158924-.4045095.2095896-.5186089-.3986685-.4311327-1.1885348-.7322735-1.6051333-.7322735-1.5957608,0-2.9494681,2.1621833-3.5973894,2.1621833-.0809562,0-.1863623-.0304265-.2811734-.1684324-.0213257-.029204-.0438739-.0317848-.0438739.0172507,0,.6526756.3462372.7109478.5300186.7109478.1040477.0013583.2161096-.0317848.2963866-.0768813.0213257-.0133116.0319207-.0039391.0319207.0198316,0,.0266232-.0052975.0915512-.0052975.1366476,0,.7693558.8038571,1.6104313.8038571,1.6104313-.3634879.3780221-1.2722077,1.013447-1.5262146.6752239-.1081227-.1366476-.5843516-.9936155-1.2196405-.3117358-.0225482.025129-.007335.054333.035724.054333.3581904,0,.6374622.2440912.5412927.6140992-.5153487-.4111653-1.2269755-.344879-1.2269755.6049984,0,.0370823.0370823.0450964.0556913.0184732.3395814-.4880465.8767991-.1578375.9543595-.0874762-.3600921.054333-.9849218.4774516-.4357508,1.2283342.0232274.0331432.0444172.025129.0478131,0,.0563705-.4934798.3568396-.5770169.6014665-.5770169.5040746,0,.8721808.4629175,1.2568586-.029204.138685.6433032.8530284.5823144,1.0267583.5531103ZM21.4486757,66.6076733c-.051073.0703613-.2189621-.0025808-.2825317-.0317848-.0146699-.0066558-.0172507,0-.0119533.0105949.0404781.0901928.2022547.3607714.4424066.3607714.108666,0,.2671826-.0637055.312279-.1366476,0,0,.9398254.30508,1.4047803.4338493-.1803856.2400162-.2931267.5292038-.3156749.8436563-.374762-.2309154-1.8743534-1.0347727-1.8743534-1.0347727l-.4649548.6354249c-.0768812.1048628-.4482474-.1658516-.3713662-.2719369l.3547946-.4854657c-.1173593-.1246943-.4005702-.0464547-.4774514-.0239065-.0107308.0027167-.0206394-.0025808-.0107308-.0211899.0452322-.0954903.2215429-.3899754.6632704-.2574028.0013583-.2692202-.4005702-.1829665-.5052971-.1537625-.0126324.0025808-.0165716-.0027167-.0052975-.0146699.108666-.1166802.4350789-.3807388.8004684-.1644933l.1591886-.2188263-.3216515-.3382232.2015755-.2772343.225482.3037217,1.7310501-2.3704147c.0425156-.058408.385357-.1578375.5148054-.1856832.0138549.1325726.028389.4880465-.0126324.5464546l-1.7025252,2.3917404.3587338.1180385-.1983155.2784568-.4237976-.1976364-.1903014.2613419ZM27.5193042,66.2204145c0,.217468.1339309.5358596.4244767.4443084.0146773-.0066558.0278457-.0025808.0245857.0119533-.0444172.2427329-.4769081.4642758-.6745445.1778049-.1750882.370008-.1346101.7162453.2440911.9205375.0205107.0119533.0244499.0384406.0006792.0556914-.225482.1644933-.5770167.127411-.7408307-.1883998-.3105132.2334962-.2654168.7322735-.0770171.9020643,0,.0027167-.8595411.5107306-1.6394989.1472425-.5173862-.2480303-.9384671-.5650636-1.6056766-.5133114.0927809-.9352075.5604451-1.1818795,1.4199935-1.3159462.6870411-.1113827.7746531-.4270577.6764461-.6658514-.2334962-.0623472-.6605537.15254-.6605537.15254-.0770171-.1286335.0345015-.2627002.0345015-.2627002-.0425156-.0517522-.0637055-.2241238-.0637055-.2241238.4801681,0,.5650634-.1060853.5650634-.1060853.0855745-.5001356-.4237976-.5532462-.8117353-.2838901-.1803856-.1591958-.1513175-.3715022-.1513175-.3715022-.0536539-.0264874-.0874762-.1100244-.0874762-.1458842,0-.1180385.5696817-.439011.7162451-.4762291.0372181-.1657158.2440911-.3952729.8489535-.340804.0722629-.1605541-.0450891-.7455851-.1193968-.9034226-.0237707-.0476772.0105949-.0743004.0637055-.0411573.2116344.1340668.4218959.6275466.5650634.6367832,0,0,.6805211-.3568322.7136642-.3370007.032464.0186091.1286334.7787283.1286334.7787283.0903286.1113827.6155931.0025808.8450143.1007878.058408.0252649.0556913.0676446.0039391.0756588-.1716923.029204-.719505.2652811-.8096979.4164628.3143165.4709316.1663949,1.1646287.1663949,1.3557452Z"
         id="path14" />
    </g>
    <g
       id="Isolatiemodus">
      <g
         id="g143">
        <path
           d="M61.8759766,64.4648438c.5581055-.1708984.8994141-.4658203.8994141-1.1787109v-7.5966797l-.9770508-.3256836v-.3408203c1.0078125-.1704102,1.8759766-.2167969,3.1469727-.2167969,3.2558594,0,5.4106445,1.6586914,5.4106445,4.6352539,0,3.4106445-2.6044922,5.4726562-5.6430664,5.4726562-1.2246094,0-1.8603516-.015625-2.8369141-.1552734v-.2939453ZM64.8681641,63.9990234c2.1855469,0,3.984375-1.534668,3.984375-4.2944336,0-2.5732422-1.7211914-3.9995117-3.9379883-3.9995117-.2480469,0-.5268555.015625-.8061523.0463867v8.1860352c.2792969.03125.4960938.0615234.7597656.0615234Z"
           id="path17" />
        <path
           d="M72.3945312,58.4179688l-.8837891-.434082v-.3251953c.6972656-.2016602,1.3022461-.2949219,1.7363281-.2949219h.5117188l-.0932617.8681641v3.5039062c0,1.628418.5112305,2.1547852,1.503418,2.1547852.5742188,0,1.1630859-.2167969,1.5195312-.4492188v-5.0234375l-.8994141-.434082v-.3251953c.7138672-.2016602,1.3183594-.2949219,1.7519531-.2949219h.5117188l-.0927734.8681641v5.2407227c.1083984.2636719.3408203.5419922.5888672.8056641-.2324219.2480469-.6660156.5429688-1.0537109.7285156-.3105469-.2167969-.5898438-.5419922-.7294922-.8984375-.3867188.3564453-1.2705078.8212891-2.2324219.8212891-1.3173828,0-2.1386719-.7597656-2.1386719-2.5429688v-3.96875Z"
           id="path19" />
        <path
           d="M80.3925781,60.5263672l.0458984-2.0620117h-.8525391v-.5112305l1.6748047-1.6586914.5117188-.0625-.0625,1.3955078h2.046875l-.1083984.8369141h-1.984375l-.03125,1.9536133c-.015625.6508789-.015625,1.2402344-.015625,1.8139648,0,1.2563477.3720703,1.6899414.9453125,1.6899414.4501953,0,.8378906-.1552734,1.1474609-.4033203l.1552734.0625c-.0625.9140625-.6044922,1.3798828-1.6748047,1.3798828-1.2402344,0-1.8447266-.6513672-1.8447266-2.1557617,0-.7441406.03125-1.5654297.046875-2.2788086Z"
           id="path21" />
        <path
           d="M88.1347656,57.2866211c1.2558594,0,1.6738281.402832,1.6738281.9145508,0,.2944336-.0771484.5581055-.1855469.8061523-.5888672-.465332-1.1474609-.7133789-1.7988281-.7133789-1.0693359,0-1.984375,1.0541992-1.984375,2.8525391,0,1.8452148.9765625,2.7753906,2.1865234,2.7753906.6044922,0,1.2861328-.2636719,1.7666016-.6201172.046875.0927734.078125.2480469.078125.3876953,0,.7285156-.7910156,1.3017578-2.2636719,1.3017578-1.6894531,0-3.1162109-1.4101562-3.1162109-3.5654297,0-2.5424805,1.5966797-4.1391602,3.6435547-4.1391602Z"
           id="path23" />
        <path
           d="M90.8603516,64.4951172c.4189453-.1542969.8212891-.4648438.8212891-.8369141v-8.9916992l-1.0068359-.4189453v-.3408203c.6972656-.2016602,1.3330078-.2792969,1.8603516-.2792969h.4960938l-.078125.8681641v3.7055664c.5585938-.5424805,1.2714844-.8530273,2.2480469-.8530273,1.3183594,0,2.1708984.8217773,2.1708984,2.4189453v4.3413086l.8056641.2324219v.2939453c-.4335938.1708984-.9765625.2636719-1.6435547.2636719-.3095703,0-.6972656-.03125-.9921875-.1396484v-.2636719c.3720703-.1699219.5585938-.4648438.5585938-1.0224609v-2.9614258c0-1.5195312-.6201172-2.0932617-1.5810547-2.0932617-.6054688,0-1.2099609.2172852-1.5664062.480957v5.2094727l.8681641.2324219v.2939453c-.5263672.1865234-1.0078125.2636719-1.7978516.2636719-.3564453,0-.8066406-.03125-1.1630859-.1396484v-.2636719Z"
           id="path25" />
        <path
           d="M101.4775391,64.4648438c.4804688-.1708984.6972656-.3876953.9140625-.9921875l3.0703125-8.5893555,1.0849609-.1396484,2.8525391,9.3178711.8056641.2636719v.3251953c-.4492188.1865234-.9765625.2636719-1.5341797.2636719-.5742188,0-1.0546875-.03125-1.6123047-.1552734v-.2939453c.6044922-.1396484.8212891-.4658203.7128906-.8525391l-.5273438-1.9233398h-3.1308594l-.7138672,2.4194336.9150391.2011719v.3408203c-.5888672.1865234-1.0078125.2636719-1.7050781.2636719-.3417969,0-.7441406-.046875-1.1318359-.1552734v-.2939453ZM107.0429688,60.8520508l-1.2246094-4.4648438h-.015625l-1.4267578,4.4648438h2.6669922Z"
           id="path27" />
        <path
           d="M111.2519531,58.4179688l-.8837891-.434082v-.3251953c.6972656-.2016602,1.3017578-.2949219,1.7363281-.2949219h.5117188l-.0927734.8681641v3.5039062c0,1.628418.5107422,2.1547852,1.5029297,2.1547852.5742188,0,1.1630859-.2167969,1.5195312-.4492188v-5.0234375l-.8994141-.434082v-.3251953c.7138672-.2016602,1.3183594-.2949219,1.7519531-.2949219h.5117188l-.0927734.8681641v5.2407227c.1083984.2636719.3408203.5419922.5888672.8056641-.2324219.2480469-.6660156.5429688-1.0537109.7285156-.3105469-.2167969-.5898438-.5419922-.7294922-.8984375-.3867188.3564453-1.2705078.8212891-2.2324219.8212891-1.3173828,0-2.1386719-.7597656-2.1386719-2.5429688v-3.96875Z"
           id="path29" />
        <path
           d="M119.25,60.5263672l.0458984-2.0620117h-.8525391v-.5112305l1.6748047-1.6586914.5117188-.0625-.0625,1.3955078h2.046875l-.1083984.8369141h-1.984375l-.03125,1.9536133c-.015625.6508789-.015625,1.2402344-.015625,1.8139648,0,1.2563477.3720703,1.6899414.9453125,1.6899414.4501953,0,.8378906-.1552734,1.1474609-.4033203l.1552734.0625c-.0625.9140625-.6044922,1.3798828-1.6748047,1.3798828-1.2402344,0-1.8447266-.6513672-1.8447266-2.1557617,0-.7441406.03125-1.5654297.046875-2.2788086Z"
           id="path31" />
        <path
           d="M123.5507812,64.4951172c.4189453-.1542969.8222656-.4648438.8222656-.8369141v-8.9916992l-1.0078125-.4189453v-.3408203c.6972656-.2016602,1.3330078-.2792969,1.8603516-.2792969h.4960938l-.078125.8681641v3.7055664c.5585938-.5424805,1.2714844-.8530273,2.2480469-.8530273,1.3173828,0,2.1708984.8217773,2.1708984,2.4189453v4.3413086l.8056641.2324219v.2939453c-.4335938.1708984-.9765625.2636719-1.6435547.2636719-.3095703,0-.6972656-.03125-.9921875-.1396484v-.2636719c.3720703-.1699219.5585938-.4648438.5585938-1.0224609v-2.9614258c0-1.5195312-.6201172-2.0932617-1.5810547-2.0932617-.6044922,0-1.2099609.2172852-1.5664062.480957v5.2094727l.8681641.2324219v.2939453c-.5273438.1865234-1.0078125.2636719-1.7978516.2636719-.3564453,0-.8066406-.03125-1.1630859-.1396484v-.2636719Z"
           id="path33" />
        <path
           d="M135.421875,57.2553711c1.90625,0,3.3789062,1.4262695,3.3789062,3.5810547,0,2.5581055-1.7822266,4.1704102-3.6269531,4.1704102-1.8759766,0-3.3955078-1.3173828-3.3955078-3.5810547,0-2.5424805,1.7363281-4.1704102,3.6435547-4.1704102ZM135.2666016,64.1083984c1.0380859,0,2.1240234-1.0078125,2.1240234-3.1323242,0-1.8139648-.9765625-2.8212891-2.078125-2.8212891-1.0693359,0-2.1230469,1.0693359-2.1230469,3.1157227,0,1.8759766.9765625,2.8378906,2.0771484,2.8378906Z"
           id="path35" />
        <path
           d="M139.9257812,64.4951172c.4033203-.1542969.8222656-.4648438.8222656-.8369141v-5.2402344l-1.0078125-.418457v-.3408203c.7128906-.2016602,1.4101562-.2792969,1.8603516-.2792969h.3720703v1.0849609h.015625l.4335938-.4804688c.4189453-.4492188.8369141-.6821289,1.3642578-.6821289.5429688,0,.8056641.2329102.8056641.6665039,0,.2949219-.0927734.6357422-.2480469.9306641-.2939453-.2329102-.6347656-.3569336-.9609375-.3569336-.4804688,0-.9296875.2172852-1.3642578.6357422v4.9306641l1.0703125.2324219v.2939453c-.5273438.1865234-1.0390625.2636719-1.9228516.2636719-.4492188,0-.8837891-.03125-1.2402344-.1396484v-.2636719Z"
           id="path37" />
        <path
           d="M145.546875,64.4951172c.4189453-.1542969.8222656-.4648438.8222656-.8369141v-5.2402344l-.9921875-.418457v-.3256836c.6972656-.2016602,1.4101562-.2944336,1.8447266-.2944336h.4960938l-.078125.8369141v5.8920898l.8681641.2324219v.2939453c-.5273438.1865234-1.0078125.2636719-1.7978516.2636719-.3564453,0-.8066406-.03125-1.1630859-.1396484v-.2636719ZM146.1982422,55.0693359c0-.4804688.3408203-.9145508.8837891-.9145508.4335938,0,.8056641.3256836.8056641.8369141,0,.5429688-.3720703.9614258-.8681641.9614258-.4648438,0-.8212891-.3720703-.8212891-.8837891Z"
           id="path39" />
        <path
           d="M150.1210938,60.5263672l.0458984-2.0620117h-.8525391v-.5112305l1.6748047-1.6586914.5117188-.0625-.0625,1.3955078h2.046875l-.1083984.8369141h-1.984375l-.03125,1.9536133c-.015625.6508789-.015625,1.2402344-.015625,1.8139648,0,1.2563477.3720703,1.6899414.9453125,1.6899414.4501953,0,.8378906-.1552734,1.1474609-.4033203l.1552734.0625c-.0625.9140625-.6044922,1.3798828-1.6748047,1.3798828-1.2402344,0-1.8447266-.6513672-1.8447266-2.1557617,0-.7441406.03125-1.5654297.046875-2.2788086Z"
           id="path41" />
        <path
           d="M157.015625,64.2939453l-2.4492188-6.0927734-.5898438-.449707v-.3720703h2.8525391v.3720703l-.8369141.3720703,1.6435547,4.7285156h.015625l1.4726562-4.6821289-.8681641-.418457v-.3720703h2.3251953v.3720703l-.3876953.3408203-2.1855469,6.0463867c-1.2246094,3.4111328-2.4492188,4.4189453-3.2402344,4.4189453-.6201172,0-.9453125-.2792969-.9453125-1.2099609.2167969.046875.4335938.0625.6972656.0625.6513672,0,1.5966797-.7441406,2.2324219-2.4189453l.2636719-.6972656Z"
           id="path43" />
        <path
           d="M164.1904297,64.4951172c.4033203-.1542969.8222656-.4648438.8222656-.8369141v-5.1782227h-.8525391v-.5424805l.8525391-.3413086v-1.1469727c-.015625-1.6430664,1.0693359-2.8217773,2.9765625-2.8217773,1.1005859,0,1.5341797.2949219,1.5341797.7441406,0,.1396484-.03125.3569336-.0771484.5117188-.5732422-.2011719-1.4423828-.3251953-2.0615234-.3251953-.6357422,0-1.1474609.5888672-1.1474609,1.6894531,0,.2324219.0302734,1.0541992.0615234,1.3955078h1.984375l-.1699219.8369141h-1.8300781v5.628418l.9765625.2324219v.2939453c-.5263672.1865234-1.0537109.2636719-1.90625.2636719-.3720703,0-.8066406-.03125-1.1630859-.1396484v-.2636719Z"
           id="path45" />
        <path
           d="M172.2578125,57.2553711c1.90625,0,3.3789062,1.4262695,3.3789062,3.5810547,0,2.5581055-1.7822266,4.1704102-3.6269531,4.1704102-1.8759766,0-3.3955078-1.3173828-3.3955078-3.5810547,0-2.5424805,1.7363281-4.1704102,3.6435547-4.1704102ZM172.1025391,64.1083984c1.0380859,0,2.1240234-1.0078125,2.1240234-3.1323242,0-1.8139648-.9765625-2.8212891-2.078125-2.8212891-1.0693359,0-2.1230469,1.0693359-2.1230469,3.1157227,0,1.8759766.9765625,2.8378906,2.0771484,2.8378906Z"
           id="path47" />
        <path
           d="M176.7626953,64.4951172c.4033203-.1542969.8212891-.4648438.8212891-.8369141v-5.2402344l-1.0068359-.418457v-.3408203c.7128906-.2016602,1.4101562-.2792969,1.8603516-.2792969h.3720703v1.0849609h.0146484l.4345703-.4804688c.4189453-.4492188.8369141-.6821289,1.3642578-.6821289.5429688,0,.8066406.2329102.8066406.6665039,0,.2949219-.09375.6357422-.2480469.9306641-.2949219-.2329102-.6357422-.3569336-.9619141-.3569336-.4804688,0-.9296875.2172852-1.3642578.6357422v4.9306641l1.0703125.2324219v.2939453c-.5273438.1865234-1.0390625.2636719-1.9228516.2636719-.4492188,0-.8837891-.03125-1.2402344-.1396484v-.2636719Z"
           id="path49" />
        <path
           d="M185.0244141,64.4648438c.5576172-.1708984.8994141-.4658203.8994141-1.1787109v-7.5966797l-.9765625-.3256836v-.3408203c1.0078125-.1704102,1.875-.2167969,3.1464844-.2167969,3.2558594,0,5.4111328,1.6586914,5.4111328,4.6352539,0,3.4106445-2.6044922,5.4726562-5.6435547,5.4726562-1.2246094,0-1.8603516-.015625-2.8369141-.1552734v-.2939453ZM188.0166016,63.9990234c2.1855469,0,3.984375-1.534668,3.984375-4.2944336,0-2.5732422-1.7207031-3.9995117-3.9384766-3.9995117-.2480469,0-.5263672.015625-.8056641.0463867v8.1860352c.2792969.03125.4960938.0615234.7597656.0615234Z"
           id="path51" />
        <path
           d="M194.8525391,64.4951172c.4189453-.1542969.8212891-.4648438.8212891-.8369141v-5.2402344l-.9921875-.418457v-.3256836c.6982422-.2016602,1.4111328-.2944336,1.8457031-.2944336h.4960938l-.078125.8369141v5.8920898l.8681641.2324219v.2939453c-.5263672.1865234-1.0078125.2636719-1.7978516.2636719-.3564453,0-.8066406-.03125-1.1630859-.1396484v-.2636719ZM195.5039062,55.0693359c0-.4804688.3408203-.9145508.8837891-.9145508.4335938,0,.8056641.3256836.8056641.8369141,0,.5429688-.3720703.9614258-.8681641.9614258-.4648438,0-.8212891-.3720703-.8212891-.8837891Z"
           id="path53" />
        <path
           d="M200.2226562,62.4956055v-.015625c-.6982422-.2792969-1.3955078-1.0854492-1.3955078-2.1552734,0-1.7363281,1.3955078-3.0693359,3.0849609-3.0693359.6357422,0,1.4101562.2636719,1.6738281.5117188.2792969-.2636719.8681641-.4960938,1.3642578-.4960938.2636719,0,.5117188.0463867.6669922.0927734l-.1083984,1.0234375c-.4960938-.1083984-1.0546875-.1708984-1.6591797-.1708984v.015625c.5117188.3876953.8837891,1.0541992.8837891,1.6899414,0,1.7983398-1.4726562,3.0229492-3.1474609,3.0229492-.3408203,0-.6972656-.0771484-.9609375-.1860352-.2324219.1396484-.4960938.4658203-.4960938.7441406,0,.4658203.3876953.7138672.9921875.7138672l2.1708984-.015625c1.3017578-.015625,2.0302734.5888672,2.0302734,1.7363281,0,1.4726562-1.6269531,2.7128906-3.7822266,2.7128906-1.953125,0-2.9609375-.7900391-2.9609375-1.8134766,0-.8222656.6357422-1.4882812,1.4726562-1.7216797v-.0146484c-.5732422-.2021484-.9150391-.6201172-.9150391-1.2099609,0-.5888672.4960938-1.1938477,1.0859375-1.3950195ZM201.7412109,67.7509766c1.4726562,0,2.4501953-.7285156,2.4501953-1.4726562,0-.6044922-.4033203-.9453125-1.1474609-.9453125h-2.4960938c-.4501953.2011719-.7910156.7128906-.7910156,1.2402344,0,.6357422.6826172,1.1777344,1.984375,1.1777344ZM203.3691406,59.9682617c0-1.3022461-.7285156-1.9223633-1.5498047-1.9223633-.8837891,0-1.6279297.8374023-1.6279297,2.1860352,0,1.3022461.7285156,1.9379883,1.4882812,1.9379883.9453125,0,1.6894531-.6821289,1.6894531-2.2016602Z"
           id="path55" />
        <path
           d="M206.625,64.4951172c.4189453-.1542969.8222656-.4648438.8222656-.8369141v-5.2402344l-.9921875-.418457v-.3256836c.6972656-.2016602,1.4101562-.2944336,1.8447266-.2944336h.4960938l-.078125.8369141v5.8920898l.8681641.2324219v.2939453c-.5273438.1865234-1.0078125.2636719-1.7978516.2636719-.3564453,0-.8066406-.03125-1.1630859-.1396484v-.2636719ZM207.2763672,55.0693359c0-.4804688.3408203-.9145508.8837891-.9145508.4335938,0,.8056641.3256836.8056641.8369141,0,.5429688-.3720703.9614258-.8681641.9614258-.4648438,0-.8212891-.3720703-.8212891-.8837891Z"
           id="path57" />
        <path
           d="M211.1992188,60.5263672l.0458984-2.0620117h-.8525391v-.5112305l1.6748047-1.6586914.5117188-.0625-.0625,1.3955078h2.046875l-.1083984.8369141h-1.984375l-.03125,1.9536133c-.015625.6508789-.015625,1.2402344-.015625,1.8139648,0,1.2563477.3720703,1.6899414.9453125,1.6899414.4501953,0,.8378906-.1552734,1.1474609-.4033203l.1552734.0625c-.0625.9140625-.6044922,1.3798828-1.6748047,1.3798828-1.2402344,0-1.8447266-.6513672-1.8447266-2.1557617,0-.7441406.03125-1.5654297.046875-2.2788086Z"
           id="path59" />
        <path
           d="M219.5244141,60.7436523v-.4189453c0-1.6738281-.4023438-2.0307617-1.3798828-2.0307617-.8525391,0-1.6738281.3569336-2.3251953,1.0078125-.0302734-.1547852-.0458984-.2944336-.0458984-.465332,0-.9921875.7285156-1.5654297,2.5419922-1.5654297,1.5654297,0,2.4960938.7905273,2.4960938,2.0771484,0,.3413086-.046875,1.1162109-.0615234,1.565918l-.046875,2.5117188c.1083984.2792969.3408203.5732422.6201172.7910156-.2324219.2783203-.6513672.5888672-1.0546875.7900391-.2939453-.1855469-.5263672-.4335938-.7128906-.7597656-.4335938.4189453-1.2714844.7441406-2.0927734.7441406-1.1630859,0-1.96875-.7285156-1.96875-1.7207031,0-1.3642578,1.4882812-2.5268555,4.0302734-2.5268555ZM218.0361328,64.0615234c.4814453,0,1.1005859-.1865234,1.4882812-.4189453v-2.1704102c-1.7509766,0-2.6972656.7285156-2.6972656,1.565918,0,.6201172.4189453,1.0234375,1.2089844,1.0234375Z"
           id="path61" />
        <path
           d="M222.5517578,64.4951172c.4033203-.1542969.8212891-.4648438.8212891-.8369141v-8.9916992l-1.0068359-.4189453v-.3408203c.6972656-.2016602,1.4257812-.2792969,1.8603516-.2792969h.4960938l-.078125.8681641v9.612793l.8681641.2324219v.2939453c-.5263672.1865234-1.0224609.2636719-1.7978516.2636719-.3720703,0-.8066406-.03125-1.1630859-.1396484v-.2636719Z"
           id="path63" />
        <path
           d="M61.8759766,82.0644531c.5273438-.1542969.8994141-.4335938.8994141-1.1933594v-7.6279297l-.9770508-.2480469v-.3408203c.6357422-.1699219,1.1938477-.2480469,1.7827148-.2480469.5737305,0,1.0078125.046875,1.4418945.1552734v.2949219c-.6665039.1855469-.8989258.4960938-.8989258,1.1162109v7.6894531l.9765625.2480469v.3408203c-.5117188.1552734-1.1162109.2636719-1.7827148.2636719-.6201172,0-1.0234375-.046875-1.4418945-.1552734v-.2949219Z"
           id="path65" />
        <path
           d="M66.4033203,82.0957031c.4033203-.1552734.8217773-.4648438.8217773-.8369141v-5.2402344l-1.0078125-.4179688v-.3417969c.7133789-.2011719,1.4106445-.2792969,1.8603516-.2792969h.3720703v.8378906c.5273438-.5273438,1.3955078-.8681641,2.2944336-.8681641,1.2871094,0,2.1704102.8212891,2.1704102,2.4179688v4.3408203l.8061523.2324219v.2949219c-.418457.1708984-.9609375.2636719-1.6279297.2636719-.3251953,0-.6972656-.03125-1.0073242-.1396484v-.2636719c.387207-.1708984.5581055-.4648438.5581055-1.0234375v-2.9609375c0-1.5185547-.6357422-2.0927734-1.550293-2.0927734-.6357422,0-1.2558594.2167969-1.597168.4804688v5.2089844l.8681641.2324219v.2949219c-.5268555.1855469-1.0229492.2636719-1.7978516.2636719-.3720703,0-.8066406-.03125-1.1630859-.1396484v-.2636719Z"
           id="path67" />
        <path
           d="M74.9189453,82.0957031c.4033203-.1552734.8222656-.4648438.8222656-.8369141v-5.1777344h-.8525391v-.5429688l.8525391-.3408203v-1.1474609c-.015625-1.6435547,1.0693359-2.8212891,2.9765625-2.8212891,1.1005859,0,1.5341797.2939453,1.5341797.7441406,0,.1396484-.03125.3564453-.0771484.5117188-.5732422-.2021484-1.4423828-.3261719-2.0615234-.3261719-.6357422,0-1.1474609.5888672-1.1474609,1.6904297,0,.2324219.0302734,1.0537109.0615234,1.3945312h1.984375l-.1699219.8378906h-1.8300781v5.6269531l.9765625.2324219v.2949219c-.5263672.1855469-1.0537109.2636719-1.90625.2636719-.3720703,0-.8066406-.03125-1.1630859-.1396484v-.2636719Z"
           id="path69" />
        <path
           d="M79.9814453,82.0957031c.4033203-.1552734.8212891-.4648438.8212891-.8369141v-5.2402344l-1.0068359-.4179688v-.3417969c.7128906-.2011719,1.4101562-.2792969,1.8603516-.2792969h.3720703v1.0859375h.0146484l.4345703-.4804688c.4189453-.4501953.8369141-.6826172,1.3642578-.6826172.5429688,0,.8066406.2324219.8066406.6669922,0,.2939453-.09375.6357422-.2480469.9296875-.2949219-.2324219-.6357422-.3564453-.9619141-.3564453-.4804688,0-.9296875.2167969-1.3642578.6357422v4.9296875l1.0703125.2324219v.2949219c-.5273438.1855469-1.0390625.2636719-1.9228516.2636719-.4492188,0-.8837891-.03125-1.2402344-.1396484v-.2636719Z"
           id="path71" />
        <path
           d="M89.2734375,78.34375v-.4179688c0-1.6748047-.4023438-2.03125-1.3789062-2.03125-.8535156,0-1.6748047.3564453-2.3261719,1.0078125-.03125-.1552734-.0458984-.2949219-.0458984-.4648438,0-.9921875.7285156-1.5664062,2.5419922-1.5664062,1.5664062,0,2.4960938.7910156,2.4960938,2.078125,0,.3408203-.046875,1.1162109-.0625,1.5654297l-.0458984,2.5117188c.1083984.2792969.3408203.5732422.6201172.7900391-.2324219.2792969-.6513672.5898438-1.0546875.7910156-.2939453-.1865234-.5263672-.4345703-.7128906-.7597656-.4335938.4189453-1.2714844.7441406-2.0927734.7441406-1.1630859,0-1.96875-.7285156-1.96875-1.7207031,0-1.3642578,1.4882812-2.5273438,4.0302734-2.5273438ZM87.7851562,81.6621094c.4804688,0,1.1015625-.1865234,1.4882812-.4189453v-2.1699219c-1.7519531,0-2.6972656.7285156-2.6972656,1.5654297,0,.6201172.4189453,1.0234375,1.2089844,1.0234375Z"
           id="path73" />
        <path
           d="M92.3505859,80.6845703c.6972656.6513672,1.3642578.9775391,2.1855469.9775391.8681641,0,1.3183594-.4189453,1.3183594-.9619141,0-.5419922-.3105469-.8828125-1.3339844-1.3173828l-.7744141-.3251953c-.8994141-.3876953-1.3955078-1.0390625-1.3955078-1.9228516,0-1.2246094,1.0849609-2.2783203,2.6972656-2.2783203,1.2402344,0,1.7363281.3710938,1.7363281.9609375,0,.2324219-.03125.4335938-.0771484.6503906-.4960938-.3408203-1.1787109-.5888672-1.7675781-.5888672-.9921875,0-1.4570312.4345703-1.4570312.9619141,0,.5576172.2792969.8671875,1.2089844,1.2246094l.8369141.3251953c1.1162109.4345703,1.5351562,1.0078125,1.5351562,1.9228516,0,1.1933594-1.1474609,2.2783203-2.8837891,2.2783203-1.3642578,0-1.96875-.4335938-1.96875-1.2714844,0-.2167969.046875-.4648438.1396484-.6357422Z"
           id="path75" />
        <path
           d="M98.8125,78.1269531l.0458984-2.0615234h-.8525391v-.5117188l1.6748047-1.6591797.5117188-.0615234-.0625,1.3945312h2.046875l-.1083984.8378906h-1.984375l-.03125,1.953125c-.015625.6513672-.015625,1.2402344-.015625,1.8134766,0,1.2558594.3720703,1.6904297.9453125,1.6904297.4501953,0,.8378906-.1552734,1.1474609-.4033203l.1552734.0615234c-.0625.9150391-.6044922,1.3798828-1.6748047,1.3798828-1.2402344,0-1.8447266-.6503906-1.8447266-2.1542969,0-.7441406.03125-1.5664062.046875-2.2792969Z"
           id="path77" />
        <path
           d="M103.2539062,82.0957031c.4033203-.1552734.8222656-.4648438.8222656-.8369141v-5.2402344l-1.0078125-.4179688v-.3417969c.7128906-.2011719,1.4101562-.2792969,1.8603516-.2792969h.3720703v1.0859375h.015625l.4335938-.4804688c.4189453-.4501953.8369141-.6826172,1.3642578-.6826172.5429688,0,.8056641.2324219.8056641.6669922,0,.2939453-.0927734.6357422-.2480469.9296875-.2939453-.2324219-.6347656-.3564453-.9609375-.3564453-.4804688,0-.9296875.2167969-1.3642578.6357422v4.9296875l1.0703125.2324219v.2949219c-.5273438.1855469-1.0390625.2636719-1.9228516.2636719-.4492188,0-.8837891-.03125-1.2402344-.1396484v-.2636719Z"
           id="path79" />
        <path
           d="M109.5644531,76.0185547l-.8837891-.4335938v-.3261719c.6972656-.2011719,1.3017578-.2939453,1.7363281-.2939453h.5117188l-.0927734.8681641v3.5029297c0,1.6279297.5107422,2.1552734,1.5029297,2.1552734.5742188,0,1.1630859-.2167969,1.5195312-.4492188v-5.0234375l-.8994141-.4335938v-.3261719c.7138672-.2011719,1.3183594-.2939453,1.7519531-.2939453h.5117188l-.0927734.8681641v5.2392578c.1083984.2636719.3408203.5429688.5888672.8066406-.2324219.2480469-.6660156.5419922-1.0537109.7285156-.3105469-.2167969-.5898438-.5429688-.7294922-.8994141-.3867188.3564453-1.2705078.8222656-2.2324219.8222656-1.3173828,0-2.1386719-.7597656-2.1386719-2.5429688v-3.96875Z"
           id="path81" />
        <path
           d="M120.5234375,74.8867188c1.2558594,0,1.6738281.4033203,1.6738281.9150391,0,.2949219-.0771484.5576172-.1855469.8056641-.5888672-.4648438-1.1474609-.7128906-1.7988281-.7128906-1.0693359,0-1.984375,1.0546875-1.984375,2.8525391,0,1.8447266.9765625,2.7753906,2.1865234,2.7753906.6044922,0,1.2861328-.2636719,1.7666016-.6201172.046875.0927734.078125.2480469.078125.3876953,0,.7285156-.7910156,1.3017578-2.2636719,1.3017578-1.6894531,0-3.1162109-1.4111328-3.1162109-3.5654297,0-2.5429688,1.5966797-4.1396484,3.6435547-4.1396484Z"
           id="path83" />
        <path
           d="M124.0644531,78.1269531l.0458984-2.0615234h-.8525391v-.5117188l1.6748047-1.6591797.5117188-.0615234-.0625,1.3945312h2.046875l-.1083984.8378906h-1.984375l-.03125,1.953125c-.015625.6513672-.015625,1.2402344-.015625,1.8134766,0,1.2558594.3720703,1.6904297.9453125,1.6904297.4501953,0,.8378906-.1552734,1.1474609-.4033203l.1552734.0615234c-.0625.9150391-.6044922,1.3798828-1.6748047,1.3798828-1.2402344,0-1.8447266-.6503906-1.8447266-2.1542969,0-.7441406.03125-1.5664062.046875-2.2792969Z"
           id="path85" />
        <path
           d="M129.1894531,76.0185547l-.8837891-.4335938v-.3261719c.6972656-.2011719,1.3017578-.2939453,1.7363281-.2939453h.5117188l-.0927734.8681641v3.5029297c0,1.6279297.5107422,2.1552734,1.5029297,2.1552734.5742188,0,1.1630859-.2167969,1.5195312-.4492188v-5.0234375l-.8994141-.4335938v-.3261719c.7138672-.2011719,1.3183594-.2939453,1.7519531-.2939453h.5117188l-.0927734.8681641v5.2392578c.1083984.2636719.3408203.5429688.5888672.8066406-.2324219.2480469-.6660156.5419922-1.0537109.7285156-.3105469-.2167969-.5898438-.5429688-.7294922-.8994141-.3867188.3564453-1.2705078.8222656-2.2324219.8222656-1.3173828,0-2.1386719-.7597656-2.1386719-2.5429688v-3.96875Z"
           id="path87" />
        <path
           d="M136.6425781,82.0957031c.4033203-.1552734.8222656-.4648438.8222656-.8369141v-5.2402344l-1.0078125-.4179688v-.3417969c.7128906-.2011719,1.4101562-.2792969,1.8603516-.2792969h.3720703v1.0859375h.015625l.4335938-.4804688c.4189453-.4501953.8369141-.6826172,1.3642578-.6826172.5429688,0,.8056641.2324219.8056641.6669922,0,.2939453-.0927734.6357422-.2480469.9296875-.2939453-.2324219-.6347656-.3564453-.9609375-.3564453-.4804688,0-.9296875.2167969-1.3642578.6357422v4.9296875l1.0703125.2324219v.2949219c-.5273438.1855469-1.0390625.2636719-1.9228516.2636719-.4492188,0-.8837891-.03125-1.2402344-.1396484v-.2636719Z"
           id="path89" />
        <path
           d="M144.9892578,74.8710938c1.6748047,0,2.6826172,1.1162109,2.6826172,2.8994141,0,.2949219,0,.6044922-.015625.9921875h-4.5742188c0,1.7363281,1.0078125,2.7441406,2.2949219,2.7441406.7597656,0,1.5966797-.2636719,2.1855469-.6669922.03125.078125.0625.2480469.0625.4033203,0,.6972656-1.0234375,1.3486328-2.6669922,1.3486328-1.7666016,0-3.2089844-1.3798828-3.2089844-3.5498047,0-2.6972656,1.6279297-4.1708984,3.2402344-4.1708984ZM146.4316406,77.9560547c0-1.5185547-.6513672-2.2470703-1.5664062-2.2470703-.8525391,0-1.7519531,1.0224609-1.7519531,2.2470703h3.3183594Z"
           id="path91" />
        <path
           class="cls-2"
           d="M61.1474609,99.6640625c.2636719-.1240234.4648438-.2939453.5424805-.5888672l1.9379883-8.2939453-.8374023-.1865234v-.3710938c.4033203-.109375,1.1318359-.1865234,1.597168-.1865234h.5112305l1.3642578,7.3945312h.015625l2.5581055-7.3945312h.3876953c.387207,0,1.0385742.03125,1.4882812.1240234v.3720703l-.7290039.1865234.3569336,8.5878906.8525391.2324219v.3105469c-.465332.1552734-.8217773.2324219-1.2714844.2324219-.6357422,0-1.0078125-.046875-1.3642578-.1552734v-.2636719c.2949219-.1396484.4804688-.3251953.4804688-.8056641l-.0927734-6.8681641h-.015625l-2.8212891,8.1396484-.465332-.03125-1.519043-8.1083984h-.015625l-1.4882812,7.3017578.8837891.2480469v.3105469c-.434082.1699219-.8061523.2324219-1.2871094.2324219-.3720703,0-.7592773-.0625-1.0693359-.1552734v-.2636719Z"
           id="path93" />
        <path
           class="cls-2"
           d="M72.4824219,97.3388672l.4960938-3.1464844.0776367-.9150391-.9301758-.2949219v-.2939453c.4960938-.1865234.9921875-.2636719,1.550293-.2636719.2788086,0,.496582.015625.6977539.0927734l-.6977539,4.5576172c-.0620117.4648438-.1240234,1.2558594-.1240234,1.6591797,0,.5117188.1860352.7441406.6206055.8837891v.2636719c-.3261719.1386719-.6982422.2167969-1.1630859.2167969-.4960938,0-.7441406-.2636719-.7441406-.7128906,0-.4345703.1396484-1.4267578.2167969-2.046875ZM73.2265625,90.1767578c0-.5117188.4033203-.9609375.8681641-.9609375.4033203,0,.7138672.3095703.7138672.7441406,0,.5263672-.4189453.9609375-.8691406.9609375-.4179688,0-.7128906-.2792969-.7128906-.7441406Z"
           id="path95" />
        <path
           class="cls-2"
           d="M76.3876953,93.2773438l-.9453125-.2949219v-.2939453c.4960938-.1865234.9609375-.2636719,1.5351562-.2636719.2011719,0,.4179688.03125.6357422.1083984l-.4960938,2.3720703h.0146484c.7138672-1.5820312,1.7363281-2.5117188,2.7910156-2.5117188.6816406,0,1.2246094.4804688,1.2246094,1.4257812,0,.4960938-.1396484,1.2871094-.2324219,1.9541016l-.2792969,1.6738281c-.0458984.3564453-.1240234.9619141-.1240234,1.2871094,0,.5117188.2480469.7128906.7285156.8056641v.2636719c-.3564453.1865234-.7597656.2949219-1.2402344.2949219s-.7597656-.2636719-.7597656-.7128906c0-.3876953.109375-1.1474609.1865234-1.6435547l.2939453-1.7832031c.078125-.4804688.1552734-1.1474609.1552734-1.5654297,0-.6972656-.3095703-.9306641-.6816406-.9306641-.8681641,0-2.1083984,1.6748047-2.1708984,3.8759766l-.0927734,2.6201172h-1.3173828l.7744141-6.6816406Z"
           id="path97" />
        <path
           class="cls-2"
           d="M82.7871094,97.3388672l.4960938-3.1464844.0771484-.9150391-.9296875-.2949219v-.2939453c.4960938-.1865234.9921875-.2636719,1.5498047-.2636719.2792969,0,.4960938.015625.6972656.0927734l-.6972656,4.5576172c-.0615234.4648438-.1240234,1.2558594-.1240234,1.6591797,0,.5117188.1865234.7441406.6201172.8837891v.2636719c-.3251953.1386719-.6972656.2167969-1.1621094.2167969-.4960938,0-.7441406-.2636719-.7441406-.7128906,0-.4345703.1386719-1.4267578.2167969-2.046875ZM83.53125,90.1767578c0-.5117188.4023438-.9609375.8681641-.9609375.4033203,0,.7128906.3095703.7128906.7441406,0,.5263672-.4189453.9609375-.8681641.9609375-.4189453,0-.7128906-.2792969-.7128906-.7441406Z"
           id="path99" />
        <path
           class="cls-2"
           d="M85.578125,98.6259766c.4335938.4179688.9453125.6503906,1.5195312.6503906.7285156,0,1.3173828-.4179688,1.3173828-1.0693359,0-.5117188-.2011719-.8525391-.9609375-1.5341797l-.5429688-.4960938c-.7128906-.6513672-.9140625-1.0703125-.9140625-1.7519531,0-1.0234375.9765625-2.046875,2.4023438-2.046875,1.1318359,0,1.6904297.3408203,1.6904297.8369141,0,.2792969-.109375.6044922-.2792969.8066406-.4492188-.4648438-1.1005859-.7597656-1.6894531-.7597656-.6826172,0-1.0390625.3720703-1.0390625.8681641,0,.4492188.1855469.7128906.9609375,1.4111328l.5888672.5263672c.7441406.6669922.9921875,1.1162109.9921875,1.7988281,0,1.2246094-1.2402344,2.2939453-2.8681641,2.2939453-.9765625,0-1.4101562-.3095703-1.4101562-.8837891,0-.2783203.0927734-.4648438.2324219-.6503906Z"
           id="path101" />
        <path
           class="cls-2"
           d="M91.6640625,94.4707031l.2011719-.9921875c-.3408203,0-.5419922-.015625-.8681641-.0458984v-.2021484c.4960938-.6972656,1.2714844-1.3798828,2.0927734-1.8603516h.2324219l-.2626953,1.2714844h.4492188c.4345703,0,.7753906-.03125,1.1933594-.1083984,0,.6669922-.3720703.9609375-1.3486328.9609375h-.4335938l-.2636719,1.6123047c-.1240234.7441406-.3105469,2.03125-.3105469,2.6513672,0,1.0224609.5117188,1.4726562,1.1943359,1.4726562.2480469,0,.4033203-.03125.6357422-.1083984v.2792969c-.1396484.3710938-.6982422.7441406-1.4267578.7441406-1.0234375,0-1.5654297-.6826172-1.5654297-1.9072266,0-.9609375.2324219-2.5732422.4804688-3.7675781Z"
           id="path103" />
        <path
           class="cls-2"
           d="M96.2773438,93.2773438l-.9453125-.2949219v-.2939453c.4960938-.1865234.9609375-.2636719,1.5039062-.2636719.2011719,0,.4492188.03125.6513672.1083984l-.4658203,2.2480469h.015625l.8222656-1.3642578c.4023438-.6669922.8212891-.9765625,1.3017578-.9765625.3408203,0,.5117188.2167969.5117188.5732422,0,.2480469-.0615234.5576172-.1708984.8056641-.1542969-.0458984-.3095703-.0615234-.4804688-.0615234-.9765625,0-1.953125,1.0693359-2.0927734,3.9375l-.1240234,2.2636719h-1.2861328l.7587891-6.6816406Z"
           id="path105" />
        <path
           class="cls-2"
           d="M101.7226562,100.0830078l-1.0234375-6.8212891-.6816406-.2792969v-.3251953c.4804688-.1708984.8212891-.2480469,1.2705078-.2480469.2021484,0,.4189453.046875.6357422.1083984l.6982422,6.2783203h.0146484c.8837891-1.5654297,1.7060547-4.0302734,1.7060547-5.0224609,0-.4345703-.2177734-.6982422-.5429688-.8837891v-.2480469c.2792969-.1396484.6044922-.2324219.9765625-.2324219.5273438,0,.8066406.2792969.8066406.9296875,0,.6826172-.4501953,2.046875-1.3798828,3.8603516l-1.7519531,3.4267578c-1.1318359,2.2167969-2.3564453,3.1005859-3.4101562,3.1005859-.7597656,0-1.2099609-.3261719-1.2099609-.8066406,0-.1708984.03125-.4033203.1083984-.5576172.4189453.2324219.9150391.3095703,1.4423828.3095703.6972656,0,1.5185547-.6044922,2.1240234-2.0615234l.2167969-.5273438Z"
           id="path107" />
        <path
           class="cls-2"
           d="M111.984375,92.3466797c1.2558594,0,2.1542969.8222656,2.1542969,2.5898438,0,3.2861328-1.7978516,5.2236328-3.3330078,5.2236328-1.2089844,0-2.2167969-.9296875-2.2167969-2.7587891,0-3.2714844,1.6904297-5.0546875,3.3955078-5.0546875ZM112.8681641,95.2460938c0-1.3798828-.5117188-2-1.1943359-2-.8369141,0-1.8603516,1.4267578-1.8603516,3.6123047,0,1.7675781.5888672,2.4335938,1.2714844,2.4335938.7441406,0,1.7832031-1.2861328,1.7832031-4.0458984Z"
           id="path109" />
        <path
           class="cls-2"
           d="M116.0400391,93.6337891h-.8222656c0-.4804688.3417969-.8681641.9150391-.8681641l.1552734-1.3173828c.1855469-1.5976562,1.3798828-2.6044922,2.8369141-2.6044922s1.6738281.2167969,1.6738281.6044922c0,.2011719-.0615234.4804688-.1699219.7285156-.5585938-.3408203-1.0390625-.4804688-1.6591797-.4804688-.8056641,0-1.4257812.6201172-1.5341797,1.5966797l-.1708984,1.4882812h.6669922c.4335938,0,.7900391-.015625,1.2402344-.0625,0,.6357422-.1708984.8994141-1.2402344.8994141h-.7597656l-.8681641,8.1083984c-.1552734,1.4570312-.7910156,2.0615234-1.5195312,2.0615234-.3876953,0-.7753906-.1240234-.9609375-.2949219v-.2324219c.6972656-.2167969,1.1933594-.6660156,1.2861328-1.4414062l.9306641-8.1855469Z"
           id="path111" />
        <path
           class="cls-2"
           d="M121.3251953,99.6337891c.3408203-.078125.5419922-.2949219.6044922-.7910156l.9453125-8.0458984-.8828125-.2636719v-.4345703h5.5341797l-.2636719,2.078125h-.4345703l-.0302734-.2949219c-.0625-.6513672-.4189453-.9609375-1.0390625-.9609375h-1.6738281l-.4501953,3.6738281h1.7519531c.5117188,0,.7910156-.2324219.9150391-.6201172l.0771484-.2324219h.4345703l-.2949219,2.6826172h-.4345703l-.0146484-.2636719c-.03125-.5898438-.2636719-.7910156-.6982422-.7910156h-1.8291016l-.4345703,3.7675781h1.8916016c.7753906,0,1.2246094-.2636719,1.4580078-.7441406l.1386719-.3261719h.4501953l-.4345703,1.8916016h-5.2861328v-.3251953Z"
           id="path113" />
        <path
           class="cls-2"
           d="M128.1630859,97.4472656c0-3.4257812,1.6123047-5.0849609,3.2402344-5.0849609.9306641,0,1.3486328.3261719,1.3486328.7441406,0,.4033203-.1240234.7597656-.3564453,1.0859375-.3408203-.5742188-.7900391-.8994141-1.3330078-.8994141-.7285156,0-1.7050781,1.2089844-1.7050781,3.921875,0,1.4423828.5732422,2.046875,1.1308594,2.046875.5585938,0,1.1630859-.4033203,1.5820312-.9306641.0771484.078125.1396484.2324219.1396484.4189453,0,.7744141-.7138672,1.4726562-2.0927734,1.4726562-1.1171875,0-1.9541016-.8994141-1.9541016-2.7753906Z"
           id="path115" />
        <path
           class="cls-2"
           d="M136.5654297,92.3466797c1.2558594,0,2.1542969.8222656,2.1542969,2.5898438,0,3.2861328-1.7978516,5.2236328-3.3330078,5.2236328-1.2089844,0-2.2167969-.9296875-2.2167969-2.7587891,0-3.2714844,1.6894531-5.0546875,3.3955078-5.0546875ZM137.4492188,95.2460938c0-1.3798828-.5117188-2-1.1943359-2-.8369141,0-1.8603516,1.4267578-1.8603516,3.6123047,0,1.7675781.5898438,2.4335938,1.2714844,2.4335938.7441406,0,1.7832031-1.2861328,1.7832031-4.0458984Z"
           id="path117" />
        <path
           class="cls-2"
           d="M140.6357422,93.2773438l-.9453125-.2949219v-.2939453c.4960938-.1865234.9609375-.2636719,1.5351562-.2636719.2011719,0,.4179688.03125.6357422.1083984l-.4960938,2.3720703h.0146484c.7138672-1.5820312,1.7363281-2.5117188,2.7910156-2.5117188.6816406,0,1.2246094.4804688,1.2246094,1.4257812,0,.4960938-.1396484,1.2871094-.2324219,1.9541016l-.2792969,1.6738281c-.0458984.3564453-.1240234.9619141-.1240234,1.2871094,0,.5117188.2480469.7128906.7285156.8056641v.2636719c-.3564453.1865234-.7597656.2949219-1.2402344.2949219s-.7597656-.2636719-.7597656-.7128906c0-.3876953.109375-1.1474609.1865234-1.6435547l.2939453-1.7832031c.078125-.4804688.1552734-1.1474609.1552734-1.5654297,0-.6972656-.3095703-.9306641-.6816406-.9306641-.8681641,0-2.1083984,1.6748047-2.1708984,3.8759766l-.0927734,2.6201172h-1.3173828l.7744141-6.6816406Z"
           id="path119" />
        <path
           class="cls-2"
           d="M150.0419922,92.3466797c1.2558594,0,2.1542969.8222656,2.1542969,2.5898438,0,3.2861328-1.7978516,5.2236328-3.3330078,5.2236328-1.2089844,0-2.2167969-.9296875-2.2167969-2.7587891,0-3.2714844,1.6894531-5.0546875,3.3955078-5.0546875ZM150.9257812,95.2460938c0-1.3798828-.5117188-2-1.1943359-2-.8369141,0-1.8603516,1.4267578-1.8603516,3.6123047,0,1.7675781.5898438,2.4335938,1.2714844,2.4335938.7441406,0,1.7832031-1.2861328,1.7832031-4.0458984Z"
           id="path121" />
        <path
           class="cls-2"
           d="M154.1132812,93.2773438l-.9453125-.2949219v-.2939453c.4960938-.1865234.9609375-.2636719,1.5351562-.2636719.2011719,0,.4179688.03125.6347656.1083984l-.4960938,2.3876953h.015625c.6982422-1.5664062,1.6591797-2.5273438,2.7597656-2.5273438.6826172,0,1.0849609.4648438,1.0849609,1.0849609,0,.2792969-.0458984.6044922-.0927734.8066406l-.1552734.5576172h.015625c.5585938-1.2558594,1.7519531-2.4492188,2.7128906-2.4492188.6826172,0,1.1943359.4960938,1.1943359,1.3955078,0,.5732422-.1240234,1.2861328-.2324219,2.0146484l-.2324219,1.4111328c-.0625.4033203-.1708984,1.1787109-.1708984,1.5195312,0,.5117188.2636719.6816406.7441406.7900391v.2636719c-.3564453.1865234-.7753906.2949219-1.2402344.2949219-.4960938,0-.7597656-.2636719-.7597656-.7128906,0-.4345703.1396484-1.3798828.2167969-1.8759766l.2636719-1.5507812c.0771484-.4960938.1708984-1.1777344.1708984-1.5966797,0-.6357422-.2324219-.8984375-.5742188-.8984375-.9140625,0-2.0615234,1.4882812-2.1699219,3.3476562l-.1552734,3.1630859h-1.3798828c.078125-.3720703.1552734-1.0390625.2021484-1.3955078l.3876953-2.7128906c.0458984-.4648438.1230469-1.0693359.1230469-1.4414062,0-.6982422-.2324219-.9609375-.6347656-.9609375-.8681641,0-2.1240234,1.6269531-2.1865234,3.890625l-.0927734,2.6201172h-1.3173828l.7744141-6.6816406Z"
           id="path123" />
        <path
           class="cls-2"
           d="M164.0458984,97.3388672l.4960938-3.1464844.0771484-.9150391-.9296875-.2949219v-.2939453c.4960938-.1865234.9921875-.2636719,1.5498047-.2636719.2792969,0,.4960938.015625.6982422.0927734l-.6982422,4.5576172c-.0615234.4648438-.1240234,1.2558594-.1240234,1.6591797,0,.5117188.1865234.7441406.6201172.8837891v.2636719c-.3251953.1386719-.6972656.2167969-1.1630859.2167969-.4960938,0-.7441406-.2636719-.7441406-.7128906,0-.4345703.1396484-1.4267578.2177734-2.046875ZM164.7900391,90.1767578c0-.5117188.4033203-.9609375.8681641-.9609375.4023438,0,.7128906.3095703.7128906.7441406,0,.5263672-.4189453.9609375-.8681641.9609375-.4189453,0-.7128906-.2792969-.7128906-.7441406Z"
           id="path125" />
        <path
           class="cls-2"
           d="M166.9648438,97.4472656c0-3.4257812,1.6123047-5.0849609,3.2402344-5.0849609.9306641,0,1.3486328.3261719,1.3486328.7441406,0,.4033203-.1240234.7597656-.3564453,1.0859375-.3408203-.5742188-.7910156-.8994141-1.3330078-.8994141-.7285156,0-1.7050781,1.2089844-1.7050781,3.921875,0,1.4423828.5732422,2.046875,1.1318359,2.046875.5576172,0,1.1621094-.4033203,1.5810547-.9306641.0771484.078125.1396484.2324219.1396484.4189453,0,.7744141-.7138672,1.4726562-2.09375,1.4726562-1.1152344,0-1.953125-.8994141-1.953125-2.7753906Z"
           id="path127" />
        <path
           class="cls-2"
           d="M173.2431641,99.9277344v-.2636719c.3095703-.0927734.6357422-.3720703.7900391-.7441406l3.6894531-8.3095703c.078125-.1699219.109375-.3564453.109375-.5117188l1.2558594-.1699219,1.2861328,9.4101562.7910156.2011719v.3105469c-.3876953.1552734-.7910156.2324219-1.3330078.2324219-.5117188,0-.9462891-.046875-1.3798828-.1552734v-.2636719c.3720703-.1083984.5576172-.3408203.5107422-.8525391l-.2167969-2.2324219h-2.6816406l-1.1474609,2.7910156.8525391.1699219v.3105469c-.4023438.1552734-.9765625.2324219-1.4726562.2324219-.3720703,0-.7285156-.0625-1.0537109-.1552734ZM178.6220703,95.7890625l-.4648438-4.2021484h-.015625l-1.7675781,4.2636719,2.2480469-.0615234Z"
           id="path129" />
        <path
           class="cls-2"
           d="M182.8037109,93.6337891h-.8222656c0-.4804688.3417969-.8681641.9150391-.8681641l.1552734-1.3173828c.1855469-1.5976562,1.3798828-2.6044922,2.8369141-2.6044922s1.6738281.2167969,1.6738281.6044922c0,.2011719-.0615234.4804688-.1699219.7285156-.5585938-.3408203-1.0390625-.4804688-1.6591797-.4804688-.8056641,0-1.4257812.6201172-1.5341797,1.5966797l-.1708984,1.4882812h.6669922c.4335938,0,.7900391-.015625,1.2402344-.0625,0,.6357422-.1708984.8994141-1.2402344.8994141h-.7597656l-.8681641,8.1083984c-.1552734,1.4570312-.7910156,2.0615234-1.5195312,2.0615234-.3876953,0-.7753906-.1240234-.9609375-.2949219v-.2324219c.6972656-.2167969,1.1933594-.6660156,1.2861328-1.4414062l.9306641-8.1855469Z"
           id="path131" />
        <path
           class="cls-2"
           d="M187.3261719,93.6337891h-.8222656c0-.4804688.3417969-.8681641.9150391-.8681641l.1552734-1.3173828c.1855469-1.5976562,1.3798828-2.6044922,2.8369141-2.6044922s1.6738281.2167969,1.6738281.6044922c0,.2011719-.0615234.4804688-.1699219.7285156-.5585938-.3408203-1.0390625-.4804688-1.6591797-.4804688-.8056641,0-1.4257812.6201172-1.5351562,1.5966797l-.1699219,1.4882812h.6660156c.4345703,0,.7910156-.015625,1.2402344-.0625,0,.6357422-.1699219.8994141-1.2402344.8994141h-.7587891l-.8681641,8.1083984c-.1552734,1.4570312-.7910156,2.0615234-1.5195312,2.0615234-.3876953,0-.7753906-.1240234-.9609375-.2949219v-.2324219c.6972656-.2167969,1.1933594-.6660156,1.2861328-1.4414062l.9306641-8.1855469Z"
           id="path133" />
        <path
           class="cls-2"
           d="M190.1923828,97.4472656c0-3.1933594,1.8300781-5.0380859,3.9384766-5.0380859.4960938,0,1.2089844.1083984,1.7207031.2480469l-.5429688,2.7128906c-.1855469.8066406-.3408203,2.2480469-.3564453,2.9140625,0,.9921875.2011719,1.1787109.7441406,1.2558594v.3261719c-.4033203.1396484-.8994141.2324219-1.3798828.2324219-.2480469,0-.4492188-.046875-.6513672-.1083984l.3564453-2.3105469h-.0146484c-.6044922,1.5351562-1.5820312,2.4960938-2.4033203,2.4960938-.7285156,0-1.4111328-.9453125-1.4111328-2.7285156ZM194.0839844,95.9433594l.4335938-2.5732422c-.2167969-.0615234-.5732422-.0927734-.8056641-.0927734-1.2558594,0-2.3251953,1.3173828-2.3251953,3.953125,0,1.3173828.4023438,1.8759766.7753906,1.8759766.6660156,0,1.5654297-1.0390625,1.921875-3.1630859Z"
           id="path135" />
        <path
           class="cls-2"
           d="M197.2470703,97.3388672l.4960938-3.1464844.0771484-.9150391-.9296875-.2949219v-.2939453c.4960938-.1865234.9921875-.2636719,1.5498047-.2636719.2792969,0,.4960938.015625.6982422.0927734l-.6982422,4.5576172c-.0615234.4648438-.1240234,1.2558594-.1240234,1.6591797,0,.5117188.1865234.7441406.6201172.8837891v.2636719c-.3251953.1386719-.6972656.2167969-1.1630859.2167969-.4960938,0-.7441406-.2636719-.7441406-.7128906,0-.4345703.1396484-1.4267578.2177734-2.046875ZM197.9912109,90.1767578c0-.5117188.4033203-.9609375.8681641-.9609375.4023438,0,.7128906.3095703.7128906.7441406,0,.5263672-.4189453.9609375-.8681641.9609375-.4189453,0-.7128906-.2792969-.7128906-.7441406Z"
           id="path137" />
        <path
           class="cls-2"
           d="M201.1445312,93.2773438l-.9453125-.2949219v-.2939453c.4960938-.1865234.9609375-.2636719,1.5039062-.2636719.2011719,0,.4492188.03125.6513672.1083984l-.4658203,2.2480469h.015625l.8222656-1.3642578c.4023438-.6669922.8212891-.9765625,1.3017578-.9765625.3408203,0,.5117188.2167969.5117188.5732422,0,.2480469-.0615234.5576172-.1708984.8056641-.1542969-.0458984-.3095703-.0615234-.4804688-.0615234-.9765625,0-1.953125,1.0693359-2.0927734,3.9375l-.1240234,2.2636719h-1.2861328l.7587891-6.6816406Z"
           id="path139" />
        <path
           class="cls-2"
           d="M204.6279297,98.6259766c.4345703.4179688.9453125.6503906,1.5195312.6503906.7285156,0,1.3173828-.4179688,1.3173828-1.0693359,0-.5117188-.2011719-.8525391-.9609375-1.5341797l-.5429688-.4960938c-.7128906-.6513672-.9140625-1.0703125-.9140625-1.7519531,0-1.0234375.9765625-2.046875,2.4023438-2.046875,1.1318359,0,1.6904297.3408203,1.6904297.8369141,0,.2792969-.1083984.6044922-.2792969.8066406-.4501953-.4648438-1.1005859-.7597656-1.6904297-.7597656-.6816406,0-1.0380859.3720703-1.0380859.8681641,0,.4492188.1855469.7128906.9609375,1.4111328l.5888672.5263672c.7441406.6669922.9921875,1.1162109.9921875,1.7988281,0,1.2246094-1.2402344,2.2939453-2.8671875,2.2939453-.9775391,0-1.4111328-.3095703-1.4111328-.8837891,0-.2783203.0927734-.4648438.2324219-.6503906Z"
           id="path141" />
      </g>
      <rect
         class="cls-1"
         width="314"
         height="125"
         id="rect145" />
    </g>
  </g>
  <metadata
     id="metadata150">
<?xpacket begin="" id="W5M0MpCehiHzreSzNTczkc9d"?>    <x:xmpmeta
       x:xmptk="XMP Core 6.0.0">
      <rdf:RDF>
        <rdf:Description
           rdf:about="">
          <dc:format>image/svg+xml</dc:format>
          <dc:title>
            <rdf:Alt>
              <rdf:li
                 xml:lang="x-default">xxx_Logo_online_pos_en</rdf:li>
            </rdf:Alt>
          </dc:title>
          <dc:rights>
            <rdf:Alt>
              <rdf:li
                 xml:lang="x-default">Rights: By ministerial order of 16 June 2008 (Government Gazette 2008, no. 115), the State of the Netherlands (Ministry of General Affairs) entered a copyright reservation, as referred to in section 15b of the Copyright Act 1912, concerning the use and application of central government's general purpose Rijkslogo and visual identity, including the fonts Rijksoverheid Serif and Rijksoverheid Sans. This reservation does not apply to parties to whom central government has supplied the Rijkslogo and the visual identity for use in carrying out activities or services commissioned by central government. Any use in any form or by any means, electronic, mechanical, photocopying, recording or otherwise is prohibited unless prior written authorisation has been obtained from central government. To obtain authorisation, you should apply to the Government Information Service.</rdf:li>
            </rdf:Alt>
          </dc:rights>
          <xmp:CreatorTool>Adobe Illustrator 28.6 (Macintosh)</xmp:CreatorTool>
          <xmp:CreateDate>2024-08-05T12:38:50+02:00</xmp:CreateDate>
          <xmp:ModifyDate>2024-08-05T12:38:50+02:00</xmp:ModifyDate>
          <xmp:MetadataDate>2024-08-05T12:38:50+02:00</xmp:MetadataDate>
          <xmp:Thumbnails>
            <rdf:Alt>
              <rdf:li>
                <rdf:Description>
                  <xmpGImg:width>256</xmpGImg:width>
                  <xmpGImg:height>104</xmpGImg:height>
                  <xmpGImg:format>JPEG</xmpGImg:format>
                  <xmpGImg:image>/9j/4AAQSkZJRgABAgEASABIAAD/7QAsUGhvdG9zaG9wIDMuMAA4QklNA+0AAAAAABAASAAAAAEA
AQBIAAAAAQAB/+4ADkFkb2JlAGTAAAAAAf/bAIQABgQEBAUEBgUFBgkGBQYJCwgGBggLDAoKCwoK
DBAMDAwMDAwQDA4PEA8ODBMTFBQTExwbGxscHx8fHx8fHx8fHwEHBwcNDA0YEBAYGhURFRofHx8f
Hx8fHx8fHx8fHx8fHx8fHx8fHx8fHx8fHx8fHx8fHx8fHx8fHx8fHx8fHx8f/8AAEQgAaAEAAwER
AAIRAQMRAf/EAaIAAAAHAQEBAQEAAAAAAAAAAAQFAwIGAQAHCAkKCwEAAgIDAQEBAQEAAAAAAAAA
AQACAwQFBgcICQoLEAACAQMDAgQCBgcDBAIGAnMBAgMRBAAFIRIxQVEGE2EicYEUMpGhBxWxQiPB
UtHhMxZi8CRygvElQzRTkqKyY3PCNUQnk6OzNhdUZHTD0uIIJoMJChgZhJRFRqS0VtNVKBry4/PE
1OT0ZXWFlaW1xdXl9WZ2hpamtsbW5vY3R1dnd4eXp7fH1+f3OEhYaHiImKi4yNjo+Ck5SVlpeYmZ
qbnJ2en5KjpKWmp6ipqqusra6voRAAICAQIDBQUEBQYECAMDbQEAAhEDBCESMUEFURNhIgZxgZEy
obHwFMHR4SNCFVJicvEzJDRDghaSUyWiY7LCB3PSNeJEgxdUkwgJChgZJjZFGidkdFU38qOzwygp
0+PzhJSktMTU5PRldYWVpbXF1eX1RlZmdoaWprbG1ub2R1dnd4eXp7fH1+f3OEhYaHiImKi4yNjo
+DlJWWl5iZmpucnZ6fkqOkpaanqKmqq6ytrq+v/aAAwDAQACEQMRAD8A5NnQOpdirsVdirsVfcX5
ef8AKAeWf+2TY/8AUMmaPN9Z95dnj+ke5kGVs3Yq7FXYq7FXYq7FXYq7FXYq7FXYq7FXYq7FXYq7
FXYq7FXYq7FXYq7FXYq7FXYq/P3OgdS7FXYq7FXYq+4vy8/5QDyz/wBsmx/6hkzR5vrPvLs8f0j3
Mgytm7FXYq7FXYq7FXYq7FXYq7FXYq7FXYq7FXYq7FXYq7FXYq7FXYq7FXYq7FXYq7FX5+50DqXY
q7FXYq7FX3F+Xn/KAeWf+2TY/wDUMmaPN9Z95dnj+ke5kGVs3Yq7FXYq7FXYq7FXYq7FXYq7FXYq
7FXYq7FXYq7FXYq7FXYq7FXYq7FXYq7FXYq/P3OgdS7FXYq7FXYq+4vy8/5QDyz/ANsmx/6hkzR5
vrPvLs8f0j3Mgytm7FXYq7FXYq7FXYq7FXYq7FXYq7FXYq7FXYq7FXYq7FXYq7FXYq7FXYq7FXYq
7FX5+50DqXYq7FXYq7FX3F+Xn/KAeWf+2TY/9QyZo831n3l2eP6R7mQZWzdirsVdirsVdirsVdir
sVdirsVdirsVdirsVdirsVdirsVdirsVdirsVdirsVdir8/c6B1KtY2v1u9t7X1Y4PXkSL1pm4xp
zYLyduyrWpPhgJoJAey2n5NyxeXJdPnMrrczW9xLqkdrG3pGKG59ZI1dluCiSJQigZiBxX4swzqP
Vf46OQMOzyLXdIm0fV7rS5pY55rRzHJJCSULDqByCmo6EEbHMuMrFuPIUaQOSQ+4vy8/5QDyz/2y
bH/qGTNHm+s+8uzx/SPck/mL8yrzSPNN3oNt5cvNWNhp0er3UtnLB6n1aSSSL91DK8ZkdWhb4eVT
2ytmmdl+ZPkW80wanFrVsLP6vbXbvI4Qxw3m0DSK1CnNvhFe+3XFVOP80fy/YaqTrltGui3BtNRa
VvTCTAheI5U5Vc8V41qdhXFUn0n84vLV15v1HRbzUdPtrIQ6bNoF4bgA3w1ESmiK/H7JjQfDX7Q8
cVTvz/5+0nyVpdpqGpRySx3d5FZrHCKuA9XllI/khiR5H9hiqOuvOXlW0uLq3udVtoZ7KW3gu43k
UNHLd/7zo47NLT4R3xVius/nN5Xt2tpdNv7O4sotYTR9cuJpTCLQusp9SrAKRygZQSaHsTirILv8
xfIlppdnq1xr1kmm6hzNldCZGSURbSshUmqxU/eHov7VMVQ+q/md5HsGnthrmnvqkdu9zDYvdRxt
IqwG4DV+KkZjXlzoQF3xVSh/NjyEbm5srnWbW3vrFLdr6NpKxo1yFKKkpCrJvIq1XuQOu2KqvnD8
w9G0DyhrnmKCSK//AEIz28tusqxg3alVFuzmvFuTrXbFVLQvzG0GYWGn6xq+lRa/eKjC1srkywt6
oLwhHkSIhpIxyVWFT2qMVRVv+YflXUdL1a+0DUbbW30aBp7y2s5kd1orsqMa0Rn9FgOXhiqRWH5w
WhjtjrelTaG+padJqukTXM0LWt1DFEszoJ0Y+k6I4LCRV23FcVTmT8zPJdpDZjVdXs7K9u7eC4+q
icS0+sryjVXUfHz34bVYAkCmKqFl+aXlR7qxs72/tba91W6u7bS4opvXWVbSf0OTOqqsbM3H4G3D
HjuQcVQmq/mx5fl0KXVfKt9Za4LS/wBPsr9I5j+7TULtLRZBxBrvJyX9lqGhxVneKuxV2KuxV2Ku
xV2KuxV2KvinyL5Uk1C+s9Xu0in8v2d3F+lkWa3MyxKfUYNbvIkrK0aMSVU/CGP7Jzd5clChzdbC
N79Htn5l/lt+X83mXSH1B00uHUJrewtLbTVRbi4mmcpWRSvFUWqkyHkdiOpXMHDmnwmt673JyY42
GUzW11ob6Fo/6V1W5vbkm0R45bdQkdrbeo0xjMBQryRUqwP2t2rtlQPFZoM6qhZYb5L/ACw8hQef
7mGzdtQudK4jUNO1cxSMrSIHEsVE4zVqK/COBrvutLsmefBvtfc1wxx4nmn5seTo7bzHrOr6THBb
eXo5hFEGmgVmmT9zKsUIkaZx60Unxcf2W8DmVgyXEA82nLDckcn09+Xn/KAeWf8Atk2P/UMmavN9
Z95c3H9I9zG9e8r/AJiH8wtQ8xeX/wBFRW95o8GjwXN3PcGaBop5Z2uPqyW5SShnoqestaVJ3plb
Nj2sfkx5js9Ok0XyvLYyaVN5estCeXUZpop1ksLma5EwWKGZWE31ght149QD0xVML78uvO66rLqF
i2my/VfMp8xadbXE86pOk1obWWK44wSei8fLlE6iTfsMVUNZ/Lbz3qsvmu6mj0hLjzBFoIt4lubg
xxyaTO08/Im1qAfUIjIBrSp41oFU1/MT8uNb86awy3U0cGh2+kXlrZRw3MkU7316FRzMPQdfR9Je
FQxbc7b4qkDfln+Z8to8VzNpM8+oW+gfpOdrm5qLrQboTM0f+jfGtyiKSW4lGqKMN8VTaL8vvOUE
0ECfo2SxtvNs/mKOX1545mtbqWeZ0ZPQdfVQ3PEDlxIH2hiqW6X+V/nzRdRudW09NIubm7TWbT9H
3NxcLbwwapfm+ilSQWrszLy4SxFAGCj4xiqJ0j8qvM+j6T5h0q2exuob3yzp/l/SrqaeZJDLZwXE
Uks6CCQRozXZ4hGc0UeOyqD1vyncaH5b81jzTLapouuaZY2sTWjzy3i6la2i20SQR+lGHJmjVoTU
MWoOOKp5ceQfMk35OS+Wo3tpPM+qJ9Y1S4unaGFr26nFzduWijmOzswQBabAbDFULdfln5qnv9Qs
TJp/6B1XzDa+Y7m/aSU38RtzDK1rHF6Ppt+8tlRJTKKISOGKpz5a8peZtN/LbU9CuY7Ea5dtqskP
pTyvaltRuZ7iMPK0CSAJ9Y4tSM9KjwxVI4Py487Xmn6WNYbTYrjy1o1xpuh2VtPPLFLd3FoLNrq5
uXt4nRfTBARIWpyPxNirzt7mfQfO9toN1HFdDT5vLi6hpFjeRJd3OpWUEMcdxDBcwrczwRp6TH0u
KkJuR8dVXo+jfl554sNc0/VOWmI0N75ikuU9aeYLb67dxXcboDBFzkiaLiyNxUjfl2xVJrf8pvzI
+r6m+oXWnX+p6h+glN1JdTKKaNqL3spVEs1WFJlKqkSLRPE0qVXtmKuxV2KuxV2KuxV2KuxV2Kvj
78l7PSr/AMw3NjqKcLZoBPc3pkSJYbW3cPcLIXVh6cqfA9Cp47VoSM3GpJAsOuwgE7vZW83WWqNc
a75bnnubLRNSijvtMghhms7i0VleSeOKkUweFf3iyb/GAByHTD8MjaXUOTx3uOic3E+i3rR+a9L1
yCHT7cmX616nO0kgApNBduxjZJHM/wC7VmPDjVV6g1gEekjdkaO4KTXnnSzg+vebr64uYfLs15Fb
aTaxwRR2txE9A9/OrepLMpPwkhQwULQVNRYMZ+kc/wAbMTPr0eYfntF5fiuLCTRglxZ6jJPfWd5F
IjxCKTiJIYlRRxX1+b0LGjE0AqcydLe99GjPXR9F/l5/ygHln/tk2P8A1DJmuzfWfeXMx/SPcxnz
P+ZepeWvOWt299bpd+W9G0CLXJI7SH/T6yXMkDjnNcRwsqLAz04g70HTetmgfOf5qajJ5evIdCsd
S0rXbfWNN0e5Se3tnuYV1GWPjPCjyyW7845KR8z9sjkoG+Kpppf5mSL+kNMXQfMGrXmhyizvLwwW
A9a4IhcDlFPDArelcrIxIRQoNaGgKremfnNoGqXmi2Wn6ZqVxd61HNMsAS2RraO2uzZTtP6k6BvS
mVuQh9Q8Ry6UxVC2X51w3Gk6Vfv5W1kvrV3d2Vha262k0jvaCVzsbiM7xwOelAQRWlGKqar+a2gC
e3jubS8tI5r/AFLTJbmYQelBNpUElzO0pSZ24NFA5QqG6fEFxVLrn84XSHR54PKWsvDrd3FbWDSr
aRerHNby3KyxATuTWOEnhJwPjxxVNLf8zdMuL20so9Mv/rF5qOoaRGpFsALrTIZJ3Vj69OMqQt6b
Dv8Aa44qx1/+cifKUek2GpS6Tq8S6lBLe2lvJFapK1lBEskl38VyE9P4+CjlzdtkVtqqvTrS6gu7
WG7t25wXEayxPQiqOAymh9jiqrirsVdirsVdirsVdirsVdirsVdirsVdirsVdirsVfEv5c+aR5d8
yRXU1w1tYTKYtQkjgiuJTBUOURZldasyAdM3eaHFF1mOVFnun+ZvyX8t2Gpano0Mmt6ncGJotN1m
Iq1fUPqBDDD9XC8W5Ub+WnfKDDLIgHYeTaJQG4396WD86dDCGMfl/oHpkhin1aOhIqAacOoqcl+W
P86SPGH80Jhdebfyh81+X4D5hsl8u3ltcEi10WNvWeJYuICloTbqrMRsTX4ciMeSB2396TKEhvt7
mH/mb5tste1G1i0u5kuNFsYQtitxbwQTx8gBIj+gkasOSch88uw4zEb82vJKztyfWH5ef8oB5Z/7
ZNj/ANQyZqc31n3lz8f0j3JL5s/KuDzHqeuX0+rXFuNc0iPQpoY44SI7ZJWlZkLKTyYyuN+lflSt
m3qP5XC+v72+k1m4SW+1DS9TlCxQUEukBPSUVX7LvErP9woMVa1H8qbTULLzBaXGqXBi17VItYZf
TgZIpoViRY2jZGjnhZLeMNHKpBp474qllv8AkfaQ/oG3/T142m6BePqNva+hZo5uHvJbwsk0cKSQ
hmm9ORYuIZABQYqmemflYunTaGYdcu5LfQNRu9RsbeSO2K0vVlR4SyxqxULcyDkTXf2GKoe4/JvT
7nWZbyfWL59Nkvr3Uf0PxtxD6mpWklpdL6npevRlnYr8fw1PehCqpD+Vt8NM0qyufNeo3LaFeW93
o9y0VmJII7eGW2ER/clZS8Nwys8gJrQ061VXR/lSkPmRdat9evoo4dSu9YtdO4WrQx3V9bSW855N
CZWH70soL0G/XYhVCp+TcNrp2gQ6Xrt1Y3+gWLaVFf8Ao2tx61mzKwSSGeOSLkhReLha+Na4q9Dt
4vRgjh5tJ6aqnNqcm4ilTxCip9hiq/FXYq7FXYq7FXYq7FXYq7FXYq7FXYq7FXYq7FXYq/P3OgdS
7FXYq7FXYq+4vy8/5QDyz/2ybH/qGTNHm+s+8uzx/SPcwbz/AOcvMGlfmHBDpcr/AFaWyXSYoCXa
BtX1BZ5bPmleAKfV1q1K8Xytmk+keefM1lo2hTwFNT1hdG0tWF7NcsZbrV9TW0dXYSmOvKFyH4Er
xp9k0xVMJPzH82To2pRadb3V9penanM0Vu1z6TG21RbEzCMSL6iNFDJKiOnP4CFb4tlUXdfmP5uW
21fU7GTTL61sINHSyhiWUx3NxqsqKGEvMOissycaoaV70OKpvpvnjzM/ndfKl7b2b3cUytdvbiUA
WRsBM0682Y/DdssW60YHscVYv5o/MzzRfaTf2tnDBb2us2l4ukTxNKt1AItRh0tXlYbcpjcFkCbq
aDfFVTzNo1zpWs6R5b0SPVLeBdJuZ75NDvWgCTyT28Udy/1mbdIyZWY0djX4gRuFU7X8wvNN3FZT
WVvp0UOu3NzHostw0zCK2sRO0091woG9RIFKBCKc9/s1KqUaZ+cXmi4l068udMtI9GuGsI7sAyrc
o97pr6hIIhV1f0kTlvSqkD/KxVUi/NHzzPcWVpBp+nG81Q6XNZRlpikcOqpcy+lO4NfVhitObMi0
I7d8VQ0H5neZ9b0qC3vLC0hbU4tGlgW1mualNTv2tDWSNoWXkkLTLxbZRxata4qy7SfPWpSeTLzz
lqVvAuky24u9Ftbb1GuXRywhilDDiZZaxBeH7Tce1SqwDTb3zP5j0rRfLGq3bXFxN5kuoNba5FzA
0kFvaNqAhaI+lKIqyoApp0Ubg1xVA+Udf1Hy7p/1ywtrOXVr0RXEtzdSXMpNpqGpmw0+ziBcfZWE
0OwRV+zVmIVZXo3nbznNqlxbaNZWd8tx+mb9llkuVdxp1/8AUohE0kkwX6x6dAlFVPtdPhKrN/IP
mC98weV7TVrxrdprnlUWqyRqhQ8HjdJSXSSN1ZHFTuMVZDirsVdirsVdirsVdirsVdirsVYP/wAq
R/Kz/qwRf8jZ/wDqpl/5nJ3tXgw7nf8AKkfys/6sEX/I2f8A6qY/mcnevgw7nf8AKkfys/6sEX/I
2f8A6qY/mcnevgw7nf8AKkfys/6sEX/I2f8A6qY/mcnevgw7nf8AKkfys/6sEX/I2f8A6qY/mcne
vgw7mY2Fja2Fjb2NnGIrS0iSC3iBJCRxqFRQTU7KKb5STZstgFIBvKugvqEuoPa87uW4jvHkaSRh
9YhhNvHIqluKssTcfhA/AYEoLT/y78maf6P1XTET6uIBDyeWTiLWVp4Pts393JIzL4Yqtl/LfyTL
G0baYoRo5IiEklT4JZzcOoKuCAZWZtvEjoSMVRH+B/KiSLNDpdvHNHHaxRFVKoFsHElpVFIU+i6j
j32p0xVR8teWr201XUfMGstby69qSxQO1ojLDFbW4PpxIXJdiWdndj1qB0UYqlmsflpprLBFoVtb
WMdxqdnfay7+ozSQWl19d9KEVZU5zivEUXdjSuKp7qvk7y3q179e1GyW4uvTWEuzyAGJHMioyqwU
qHPKhHXFUvk/K7yFIkqPo8RWaY3DjnKPjYSBgtH+FGE8lY1oh5Go3xVMJ/J3lieYTSadEXFwl5sC
o9aK3+qIxVSFNLf93xIpx2piqlpvkPyjpsEMFlpkUSQTC5hNXZllWFrdGDszN8ELlFFaKuwxVank
HyfGYDHpkcZtltEt+BdeC2EhltaUYf3TuafOh2xVZafl35Ns7QWdrpwhthcxXoiSWZQJ4G5RHZ/s
xt8Sp9kHemKpbfeRbqLzb+n9GFvblILy4KTPOxm1S5jSBJZFPNEjSKOnwDkenTFWtN/KXykui6Ha
6xZR6jqOjWVrZrfVkQlrUiQOOLD/AHbyZa7ipHc4qnUHkjyrbwTQQ6ekcdxFJBKFZwfTmma4dQ3K
qgyyM3w0oemKpho+jaXo2nxadpdulrZQ8jHClaVdi7MSalmZmJJJqTiqMxV2KuxV2KuxV2KuxV2K
uxV2KuxV2KuxV2KuxV2KuxV2KuxV2KuxV2KuxV2KuxV2KuxV2KuxV2KuxV2KuxV2KuxV2KuxV2Ku
xV2KuxV2KuxV2KuxV2KuxV2KuxV2KuxV2KuxV2KuxV2KuxV2KuxV2KuxV2KuxV2KuxV2KuxV2Kux
V2KuxV2KuxV2Kv8A/9k=</xmpGImg:image>
                </rdf:Description>
              </rdf:li>
            </rdf:Alt>
          </xmp:Thumbnails>
          <xmpMM:RenditionClass>default</xmpMM:RenditionClass>
          <xmpMM:OriginalDocumentID>uuid:65E6390686CF11DBA6E2D887CEACB407</xmpMM:OriginalDocumentID>
          <xmpMM:DocumentID>xmp.did:318e284d-a586-4ac5-b443-1fa498f447a7</xmpMM:DocumentID>
          <xmpMM:InstanceID>xmp.iid:318e284d-a586-4ac5-b443-1fa498f447a7</xmpMM:InstanceID>
          <xmpMM:DerivedFrom>
            <rdf:Description>
              <stRef:instanceID>uuid:3782c236-a201-0943-963f-d5224fedf5a5</stRef:instanceID>
              <stRef:documentID>xmp.did:a1d1d19d-df5e-44a5-84fe-fff6a6945692</stRef:documentID>
              <stRef:originalDocumentID>uuid:65E6390686CF11DBA6E2D887CEACB407</stRef:originalDocumentID>
              <stRef:renditionClass>default</stRef:renditionClass>
            </rdf:Description>
          </xmpMM:DerivedFrom>
          <xmpMM:History>
            <rdf:Seq>
              <rdf:li>
                <rdf:Description>
                  <stEvt:action>saved</stEvt:action>
                  <stEvt:instanceID>xmp.iid:4bc33943-1bb8-41d9-b42d-3a75a8bce46d</stEvt:instanceID>
                  <stEvt:when>2017-10-23T13:00:12+02:00</stEvt:when>
                  <stEvt:softwareAgent>Adobe Illustrator CC 22.0 (Macintosh)</stEvt:softwareAgent>
                  <stEvt:changed>/</stEvt:changed>
                </rdf:Description>
              </rdf:li>
              <rdf:li>
                <rdf:Description>
                  <stEvt:action>saved</stEvt:action>
                  <stEvt:instanceID>xmp.iid:318e284d-a586-4ac5-b443-1fa498f447a7</stEvt:instanceID>
                  <stEvt:when>2024-08-05T12:38:50+02:00</stEvt:when>
                  <stEvt:softwareAgent>Adobe Illustrator 28.6 (Macintosh)</stEvt:softwareAgent>
                  <stEvt:changed>/</stEvt:changed>
                </rdf:Description>
              </rdf:li>
            </rdf:Seq>
          </xmpMM:History>
          <illustrator:StartupProfile>Web</illustrator:StartupProfile>
          <illustrator:CreatorSubTool>Adobe Illustrator</illustrator:CreatorSubTool>
          <xmpTPg:NPages>1</xmpTPg:NPages>
          <xmpTPg:HasVisibleTransparency>False</xmpTPg:HasVisibleTransparency>
          <xmpTPg:HasVisibleOverprint>False</xmpTPg:HasVisibleOverprint>
          <xmpTPg:MaxPageSize>
            <rdf:Description>
              <stDim:w>314.001838</stDim:w>
              <stDim:h>125.000000</stDim:h>
              <stDim:unit>Pixels</stDim:unit>
            </rdf:Description>
          </xmpTPg:MaxPageSize>
          <xmpTPg:PlateNames>
            <rdf:Seq>
              <rdf:li>Cyan</rdf:li>
              <rdf:li>Magenta</rdf:li>
              <rdf:li>Yellow</rdf:li>
              <rdf:li>Black</rdf:li>
            </rdf:Seq>
          </xmpTPg:PlateNames>
          <xmpTPg:SwatchGroups>
            <rdf:Seq>
              <rdf:li>
                <rdf:Description>
                  <xmpG:groupName>Standaardstaalgroep</xmpG:groupName>
                  <xmpG:groupType>0</xmpG:groupType>
                  <xmpG:Colorants>
                    <rdf:Seq>
                      <rdf:li>
                        <rdf:Description>
                          <xmpG:swatchName>Wit</xmpG:swatchName>
                          <xmpG:mode>RGB</xmpG:mode>
                          <xmpG:type>PROCESS</xmpG:type>
                          <xmpG:red>255</xmpG:red>
                          <xmpG:green>255</xmpG:green>
                          <xmpG:blue>255</xmpG:blue>
                        </rdf:Description>
                      </rdf:li>
                      <rdf:li>
                        <rdf:Description>
                          <xmpG:swatchName>Zwart</xmpG:swatchName>
                          <xmpG:mode>RGB</xmpG:mode>
                          <xmpG:type>PROCESS</xmpG:type>
                          <xmpG:red>0</xmpG:red>
                          <xmpG:green>0</xmpG:green>
                          <xmpG:blue>0</xmpG:blue>
                        </rdf:Description>
                      </rdf:li>
                      <rdf:li>
                        <rdf:Description>
                          <xmpG:swatchName>R21G66B115</xmpG:swatchName>
                          <xmpG:type>PROCESS</xmpG:type>
                          <xmpG:tint>100.000000</xmpG:tint>
                          <xmpG:mode>RGB</xmpG:mode>
                          <xmpG:red>21</xmpG:red>
                          <xmpG:green>66</xmpG:green>
                          <xmpG:blue>115</xmpG:blue>
                        </rdf:Description>
                      </rdf:li>
                    </rdf:Seq>
                  </xmpG:Colorants>
                </rdf:Description>
              </rdf:li>
            </rdf:Seq>
          </xmpTPg:SwatchGroups>
          <pdf:Producer>Adobe PDF library 17.00</pdf:Producer>
          <pdfx:CreatorVersion>21.0.0</pdfx:CreatorVersion>
          <xmpRights:Marked>True</xmpRights:Marked>
        </rdf:Description>
      </rdf:RDF>
    </x:xmpmeta>
<?xpacket end="w"?>  </metadata>
</svg>
